<svg width="144" height="46" viewBox="0 0 144 46" fill="none" xmlns="http://www.w3.org/2000/svg">
<g clip-path="url(#clip0_227_1942)">
<path d="M56.5406 36.7637H54.8988L54.9096 35.9158H56.5406C57.1023 35.9158 57.5704 35.7987 57.9448 35.5647C58.3193 35.3271 58.6001 34.9958 58.7874 34.571C58.9782 34.1425 59.0736 33.642 59.0736 33.0695V32.5889C59.0736 32.1388 59.0196 31.7392 58.9116 31.3899C58.8036 31.0371 58.6451 30.74 58.4363 30.4988C58.2275 30.2539 57.9718 30.0685 57.6694 29.9425C57.3706 29.8165 57.0267 29.7535 56.6378 29.7535H54.8664V28.9002H56.6378C57.1527 28.9002 57.6226 28.9866 58.0474 29.1594C58.4723 29.3286 58.8378 29.5752 59.1438 29.8993C59.4534 30.2197 59.6911 30.6086 59.8567 31.0659C60.0223 31.5195 60.1051 32.0308 60.1051 32.5997V33.0695C60.1051 33.6384 60.0223 34.1515 59.8567 34.6088C59.6911 35.0624 59.4516 35.4495 59.1384 35.7699C58.8288 36.0904 58.4543 36.337 58.015 36.5098C57.5794 36.6791 57.0879 36.7637 56.5406 36.7637ZM55.4551 28.9002V36.7637H54.4127V28.9002H55.4551ZM67.7256 32.5835V33.0803C67.7256 33.6708 67.6518 34.2001 67.5042 34.6682C67.3566 35.1362 67.1441 35.5341 66.8669 35.8617C66.5897 36.1894 66.2566 36.4396 65.8678 36.6125C65.4825 36.7853 65.0504 36.8717 64.5716 36.8717C64.1071 36.8717 63.6804 36.7853 63.2916 36.6125C62.9063 36.4396 62.5715 36.1894 62.2871 35.8617C62.0062 35.5341 61.7884 35.1362 61.6336 34.6682C61.4787 34.2001 61.4013 33.6708 61.4013 33.0803V32.5835C61.4013 31.993 61.4769 31.4655 61.6282 31.0011C61.783 30.533 62.0008 30.1351 62.2816 29.8075C62.5625 29.4762 62.8955 29.2242 63.2808 29.0514C63.6696 28.8785 64.0963 28.7921 64.5608 28.7921C65.0396 28.7921 65.4717 28.8785 65.857 29.0514C66.2458 29.2242 66.5789 29.4762 66.8561 29.8075C67.1369 30.1351 67.3512 30.533 67.4988 31.0011C67.65 31.4655 67.7256 31.993 67.7256 32.5835ZM66.6941 33.0803V32.5727C66.6941 32.1046 66.6455 31.6906 66.5483 31.3305C66.4546 30.9704 66.316 30.668 66.1324 30.4232C65.9488 30.1783 65.7237 29.9929 65.4573 29.8669C65.1945 29.7409 64.8956 29.6779 64.5608 29.6779C64.2367 29.6779 63.9433 29.7409 63.6804 29.8669C63.4212 29.9929 63.198 30.1783 63.0108 30.4232C62.8271 30.668 62.6849 30.9704 62.5841 31.3305C62.4833 31.6906 62.4329 32.1046 62.4329 32.5727V33.0803C62.4329 33.552 62.4833 33.9697 62.5841 34.3333C62.6849 34.6934 62.8289 34.9976 63.0162 35.2461C63.207 35.4909 63.432 35.6763 63.6912 35.8023C63.9541 35.9284 64.2475 35.9914 64.5716 35.9914C64.91 35.9914 65.2107 35.9284 65.4735 35.8023C65.7363 35.6763 65.9578 35.4909 66.1378 35.2461C66.3214 34.9976 66.46 34.6934 66.5537 34.3333C66.6473 33.9697 66.6941 33.552 66.6941 33.0803ZM74.0337 34.2631H75.0707C75.0167 34.76 74.8744 35.2047 74.644 35.5971C74.4136 35.9896 74.0877 36.301 73.6665 36.5314C73.2452 36.7583 72.7195 36.8717 72.0894 36.8717C71.6286 36.8717 71.2091 36.7853 70.8311 36.6125C70.4566 36.4396 70.1344 36.1948 69.8643 35.8779C69.5943 35.5575 69.3855 35.174 69.2378 34.7276C69.0938 34.2775 69.0218 33.777 69.0218 33.2262V32.4431C69.0218 31.8922 69.0938 31.3935 69.2378 30.947C69.3855 30.497 69.5961 30.1117 69.8697 29.7913C70.147 29.4708 70.48 29.2242 70.8689 29.0514C71.2577 28.8785 71.6952 28.7921 72.1813 28.7921C72.7753 28.7921 73.2776 28.9038 73.6881 29.127C74.0985 29.3502 74.4172 29.6599 74.644 30.0559C74.8744 30.4484 75.0167 30.9038 75.0707 31.4223H74.0337C73.9833 31.0551 73.8897 30.74 73.7529 30.4772C73.6161 30.2107 73.4216 30.0055 73.1696 29.8615C72.9176 29.7175 72.5881 29.6455 72.1813 29.6455C71.832 29.6455 71.5242 29.7121 71.2577 29.8453C70.9949 29.9785 70.7735 30.1675 70.5934 30.4124C70.417 30.6572 70.2838 30.9506 70.1938 31.2927C70.1038 31.6347 70.0588 32.0146 70.0588 32.4323V33.2262C70.0588 33.6114 70.0984 33.9733 70.1776 34.3117C70.2604 34.6502 70.3846 34.9472 70.5502 35.2028C70.7158 35.4585 70.9265 35.6601 71.1821 35.8077C71.4378 35.9518 71.7402 36.0238 72.0894 36.0238C72.5323 36.0238 72.8852 35.9536 73.148 35.8131C73.4108 35.6727 73.6089 35.4711 73.7421 35.2083C73.8789 34.9454 73.9761 34.6304 74.0337 34.2631ZM80.9899 28.9002H82.0269V34.2199C82.0269 34.8104 81.8954 35.3019 81.6326 35.6943C81.3698 36.0868 81.0205 36.382 80.5849 36.58C80.1528 36.7745 79.6829 36.8717 79.1753 36.8717C78.6424 36.8717 78.1599 36.7745 77.7278 36.58C77.2994 36.382 76.9591 36.0868 76.7071 35.6943C76.4587 35.3019 76.3345 34.8104 76.3345 34.2199V28.9002H77.366V34.2199C77.366 34.6304 77.4416 34.9688 77.5928 35.2353C77.7441 35.5017 77.9547 35.6997 78.2247 35.8293C78.4984 35.959 78.8152 36.0238 79.1753 36.0238C79.5389 36.0238 79.8558 35.959 80.1258 35.8293C80.3994 35.6997 80.6119 35.5017 80.7631 35.2353C80.9143 34.9688 80.9899 34.6304 80.9899 34.2199V28.9002ZM83.9927 28.9002H85.0027L87.5788 35.3109L90.1496 28.9002H91.165L87.9677 36.7637H87.1792L83.9927 28.9002ZM83.6633 28.9002H84.5544L84.7002 33.696V36.7637H83.6633V28.9002ZM90.5979 28.9002H91.489V36.7637H90.4521V33.696L90.5979 28.9002ZM98.3156 35.9158V36.7637H94.1516V35.9158H98.3156ZM94.3622 28.9002V36.7637H93.3199V28.9002H94.3622ZM97.7647 32.281V33.129H94.1516V32.281H97.7647ZM98.2616 28.9002V29.7535H94.1516V28.9002H98.2616ZM105.655 28.9002V36.7637H104.607L100.649 30.6986V36.7637H99.6064V28.9002H100.649L104.624 34.9814V28.9002H105.655ZM110.246 28.9002V36.7637H109.22V28.9002H110.246ZM112.773 28.9002V29.7535H106.698V28.9002H112.773ZM116.419 29.5969L113.816 36.7637H112.752L115.749 28.9002H116.435L116.419 29.5969ZM118.601 36.7637L115.992 29.5969L115.976 28.9002H116.662L119.67 36.7637H118.601ZM118.466 33.8527V34.706H114.048V33.8527H118.466ZM122.927 28.9002V36.7637H121.901V28.9002H122.927ZM125.454 28.9002V29.7535H119.379V28.9002H125.454ZM127.739 28.9002V36.7637H126.697V28.9002H127.739ZM135.689 32.5835V33.0803C135.689 33.6708 135.615 34.2001 135.467 34.6682C135.32 35.1362 135.107 35.5341 134.83 35.8617C134.553 36.1894 134.22 36.4396 133.831 36.6125C133.446 36.7853 133.014 36.8717 132.535 36.8717C132.07 36.8717 131.644 36.7853 131.255 36.6125C130.87 36.4396 130.535 36.1894 130.25 35.8617C129.969 35.5341 129.752 35.1362 129.597 34.6682C129.442 34.2001 129.365 33.6708 129.365 33.0803V32.5835C129.365 31.993 129.44 31.4655 129.591 31.0011C129.746 30.533 129.964 30.1351 130.245 29.8075C130.526 29.4762 130.859 29.2242 131.244 29.0514C131.633 28.8785 132.06 28.7921 132.524 28.7921C133.003 28.7921 133.435 28.8785 133.82 29.0514C134.209 29.2242 134.542 29.4762 134.819 29.8075C135.1 30.1351 135.314 30.533 135.462 31.0011C135.613 31.4655 135.689 31.993 135.689 32.5835ZM134.657 33.0803V32.5727C134.657 32.1046 134.609 31.6906 134.512 31.3305C134.418 30.9704 134.279 30.668 134.096 30.4232C133.912 30.1783 133.687 29.9929 133.421 29.8669C133.158 29.7409 132.859 29.6779 132.524 29.6779C132.2 29.6779 131.907 29.7409 131.644 29.8669C131.384 29.9929 131.161 30.1783 130.974 30.4232C130.79 30.668 130.648 30.9704 130.547 31.3305C130.447 31.6906 130.396 32.1046 130.396 32.5727V33.0803C130.396 33.552 130.447 33.9697 130.547 34.3333C130.648 34.6934 130.792 34.9976 130.979 35.2461C131.17 35.4909 131.395 35.6763 131.655 35.8023C131.917 35.9284 132.211 35.9914 132.535 35.9914C132.873 35.9914 133.174 35.9284 133.437 35.8023C133.7 35.6763 133.921 35.4909 134.101 35.2461C134.285 34.9976 134.423 34.6934 134.517 34.3333C134.611 33.9697 134.657 33.552 134.657 33.0803ZM143.299 28.9002V36.7637H142.251L138.292 30.6986V36.7637H137.25V28.9002H138.292L142.267 34.9814V28.9002H143.299Z" fill="white"/>
<path d="M67.2504 14.9754C67.7527 15.6165 67.9907 16.4179 67.9907 17.3796C67.9907 18.7153 67.4619 19.7571 66.4309 20.4783C65.3999 21.1996 63.893 21.5736 61.9103 21.5736H54.4287C54.2172 21.5736 54.0586 21.4133 54.0586 21.1996V6.61422C54.0586 6.40051 54.2172 6.24023 54.4287 6.24023H61.4608C63.3114 6.24023 64.7125 6.5875 65.7171 7.30876C66.6953 8.03001 67.1976 8.99169 67.1976 10.2205C67.1976 10.9685 67.0125 11.6363 66.6688 12.1973C66.4309 12.598 66.1401 12.9185 65.77 13.2124C65.5585 13.3726 65.5849 13.7199 65.8229 13.8268C66.4309 14.1206 66.8803 14.4946 67.2504 14.9754ZM57.5747 9.28553V12.1705C57.5747 12.3843 57.7333 12.5445 57.9448 12.5445H61.0643C61.9367 12.5445 62.5976 12.3843 63.0206 12.0904C63.47 11.7966 63.6815 11.3424 63.6815 10.728C63.6815 10.1403 63.47 9.68623 63.0206 9.39238C62.5712 9.09854 61.9103 8.93826 61.0643 8.93826H57.9448C57.7597 8.91155 57.5747 9.07183 57.5747 9.28553ZM63.7608 18.4214C64.2367 18.1276 64.4746 17.6467 64.4746 17.0056C64.4746 15.7501 63.5493 15.109 61.6723 15.109H57.9448C57.7333 15.109 57.5747 15.2693 57.5747 15.483V18.5283C57.5747 18.742 57.7333 18.9023 57.9448 18.9023H61.6723C62.5976 18.8755 63.285 18.742 63.7608 18.4214Z" fill="white"/>
<path d="M71.5596 6.24023H74.3354C74.5469 6.24023 74.7055 6.40051 74.7055 6.61422V21.1996C74.7055 21.4133 74.5469 21.5736 74.3354 21.5736H71.5596C71.3481 21.5736 71.1895 21.4133 71.1895 21.1996V6.61422C71.1895 6.42723 71.3481 6.24023 71.5596 6.24023Z" fill="white"/>
<path d="M93.4227 14.3345C93.4227 18.9826 90.2239 21.8142 85.994 21.8142C81.2619 21.8142 77.8516 18.288 77.8516 13.9338C77.8516 9.52613 81.3148 6 85.7561 6C88.4791 6 90.8055 7.28223 92.1273 9.15215C92.2595 9.31243 92.1802 9.55284 92.0216 9.6597L89.6951 10.9954C89.5365 11.0755 89.3515 11.0488 89.2457 10.9152C88.5584 10.0337 87.2894 9.36585 85.7297 9.36585C83.1917 9.36585 81.2883 11.2625 81.2883 13.9338C81.2883 16.525 83.086 18.4216 86.0205 18.4216C87.8975 18.4216 89.5101 17.4065 89.8802 16.0976C89.9066 15.964 89.8538 15.8571 89.7216 15.8571H86.2055C86.0205 15.8571 85.8618 15.6969 85.8618 15.5099V13.3995C85.8618 13.2125 86.0205 13.0523 86.2055 13.0523H93.0526C93.2376 13.0523 93.3963 13.2125 93.3963 13.3995V14.3345H93.4227Z" fill="white"/>
<path d="M109.548 14.9754C110.051 15.6165 110.289 16.4179 110.289 17.3796C110.289 18.7153 109.76 19.7571 108.729 20.4783C107.698 21.1996 106.191 21.5736 104.208 21.5736H96.7266C96.5151 21.5736 96.3564 21.4133 96.3564 21.1996V6.61422C96.3564 6.40051 96.5151 6.24023 96.7266 6.24023H103.759C105.609 6.24023 107.01 6.5875 108.015 7.30876C108.993 8.03001 109.495 8.99169 109.495 10.2205C109.495 10.9685 109.31 11.6363 108.967 12.1973C108.729 12.598 108.438 12.9185 108.068 13.2124C107.856 13.3726 107.883 13.7199 108.121 13.8268C108.729 14.1206 109.178 14.4946 109.548 14.9754ZM99.8725 9.28553V12.1705C99.8725 12.3843 100.031 12.5445 100.243 12.5445H103.362C104.235 12.5445 104.895 12.3843 105.318 12.0904C105.768 11.7966 105.979 11.3424 105.979 10.728C105.979 10.1403 105.768 9.68623 105.318 9.39238C104.869 9.09854 104.208 8.93826 103.362 8.93826H100.243C100.031 8.91155 99.8725 9.07183 99.8725 9.28553ZM106.059 18.4214C106.535 18.1276 106.772 17.6467 106.772 17.0056C106.772 15.7501 105.847 15.109 103.97 15.109H100.243C100.031 15.109 99.8725 15.2693 99.8725 15.483V18.5283C99.8725 18.742 100.031 18.9023 100.243 18.9023H103.97C104.895 18.8755 105.583 18.742 106.059 18.4214Z" fill="#E4E4E4"/>
<path d="M116.58 20.7991C115.311 20.1045 114.333 19.1696 113.619 17.9675C112.905 16.7654 112.535 15.403 112.535 13.9071C112.535 12.4111 112.905 11.0488 113.619 9.84669C114.333 8.6446 115.311 7.70964 116.58 7.0151C117.849 6.32056 119.25 6 120.836 6C122.396 6 123.824 6.34727 125.066 7.0151C126.309 7.70964 127.313 8.6446 128.027 9.84669C128.741 11.0488 129.111 12.4111 129.111 13.9071C129.111 15.403 128.741 16.7654 128.027 17.9675C127.313 19.1696 126.309 20.1045 125.066 20.7991C123.824 21.4936 122.396 21.8142 120.836 21.8142C119.25 21.8142 117.822 21.4669 116.58 20.7991ZM123.242 18.1812C123.956 17.7538 124.537 17.1928 124.934 16.4448C125.357 15.6969 125.542 14.8688 125.542 13.9071C125.542 12.9721 125.33 12.1173 124.934 11.3693C124.511 10.6214 123.956 10.0337 123.242 9.63298C122.528 9.20557 121.709 9.01858 120.81 9.01858C119.911 9.01858 119.118 9.23229 118.378 9.63298C117.664 10.0604 117.082 10.6214 116.686 11.3693C116.263 12.1173 116.078 12.9454 116.078 13.9071C116.078 14.842 116.289 15.6969 116.686 16.4448C117.109 17.1928 117.664 17.7805 118.378 18.1812C119.091 18.6086 119.911 18.7956 120.81 18.7956C121.709 18.7956 122.528 18.5819 123.242 18.1812Z" fill="#E4E4E4"/>
<path d="M141.193 21.3866L137.942 16.6851C137.809 16.4714 137.492 16.4714 137.36 16.6851L134.161 21.4133C134.082 21.5201 133.976 21.5736 133.87 21.5736H130.751C130.46 21.5736 130.275 21.2263 130.46 20.9859L135.483 13.987C135.562 13.8535 135.562 13.6932 135.483 13.5596L130.724 6.82792C130.566 6.5875 130.724 6.24023 131.015 6.24023H134.108C134.214 6.24023 134.346 6.29366 134.399 6.40051L137.466 10.7815C137.598 10.9952 137.915 10.9952 138.047 10.7815L141.087 6.40051C141.167 6.29366 141.273 6.24023 141.378 6.24023H144.26C144.551 6.24023 144.736 6.5875 144.551 6.82792L139.845 13.4261C139.766 13.5596 139.766 13.7199 139.845 13.8535L144.921 20.9859C145.106 21.2263 144.921 21.5736 144.63 21.5736H141.484C141.352 21.5469 141.246 21.4934 141.193 21.3866Z" fill="#E4E4E4"/>
<path d="M14.6723 22.9466V27.7817C14.6723 27.8885 14.5401 27.9687 14.4344 27.9152L4.38847 22.1986C4.22985 22.1185 4.1241 21.9315 4.1241 21.7445V17.6307C4.1241 16.7225 3.5425 15.3868 2.69653 14.719C1.90343 14.1046 0.396549 13.223 0.317239 13.1429C0.158619 13.036 0.0264366 13.1162 0.0264366 13.2765L0 19.0465V25.0035V32.59V32.777C0 34.1661 0.740224 35.4751 1.92987 36.1696C2.51147 36.5169 3.19882 36.8909 3.91261 37.3183C4.01836 37.3717 4.15054 37.2916 4.15054 37.1847V27.6214C4.15054 27.5146 4.28272 27.4344 4.38847 27.4878L14.4344 33.2044C14.593 33.2846 14.6987 33.4716 14.6987 33.6586V41.0581C14.6987 42.6342 15.5183 44.0767 16.8665 44.8781L18.7964 46C18.9021 46.0535 19.0608 45.9733 19.0608 45.8665V42.6876V24.5227C19.0608 23.9884 19.1401 23.4542 19.2723 22.9733L14.9895 20.9164C14.778 21.5308 14.6723 22.2521 14.6723 22.9466Z" fill="url(#paint0_linear_227_1942)"/>
<path d="M14.6723 22.9466V27.7817C14.6723 27.8885 14.5401 27.9687 14.4344 27.9152L4.38847 22.1986C4.22985 22.1185 4.1241 21.9315 4.1241 21.7445V17.6307C4.1241 16.7225 3.5425 15.3868 2.69653 14.719C1.90343 14.1046 0.396549 13.223 0.317239 13.1429C0.158619 13.036 0.0264366 13.1162 0.0264366 13.2765L0 19.0465V25.0035V32.59V32.777C0 34.1661 0.740224 35.4751 1.92987 36.1696C2.51147 36.5169 3.19882 36.8909 3.91261 37.3183C4.01836 37.3717 4.15054 37.2916 4.15054 37.1847V27.6214C4.15054 27.5146 4.28272 27.4344 4.38847 27.4878L14.4344 33.2044C14.593 33.2846 14.6987 33.4716 14.6987 33.6586V41.0581C14.6987 42.6342 15.5183 44.0767 16.8665 44.8781L18.7964 46C18.9021 46.0535 19.0608 45.9733 19.0608 45.8665V42.6876V24.5227C19.0608 23.9884 19.1401 23.4542 19.2723 22.9733L14.9895 20.9164C14.778 21.5308 14.6723 22.2521 14.6723 22.9466Z" fill="url(#paint1_radial_227_1942)"/>
<path d="M14.6723 22.9466V27.7817C14.6723 27.8885 14.5401 27.9687 14.4344 27.9152L4.38847 22.1986C4.22985 22.1185 4.1241 21.9315 4.1241 21.7445V17.6307C4.1241 16.7225 3.5425 15.3868 2.69653 14.719C1.90343 14.1046 0.396549 13.223 0.317239 13.1429C0.158619 13.036 0.0264366 13.1162 0.0264366 13.2765L0 19.0465V25.0035V32.59V32.777C0 34.1661 0.740224 35.4751 1.92987 36.1696C2.51147 36.5169 3.19882 36.8909 3.91261 37.3183C4.01836 37.3717 4.15054 37.2916 4.15054 37.1847V27.6214C4.15054 27.5146 4.28272 27.4344 4.38847 27.4878L14.4344 33.2044C14.593 33.2846 14.6987 33.4716 14.6987 33.6586V41.0581C14.6987 42.6342 15.5183 44.0767 16.8665 44.8781L18.7964 46C18.9021 46.0535 19.0608 45.9733 19.0608 45.8665V42.6876V24.5227C19.0608 23.9884 19.1401 23.4542 19.2723 22.9733L14.9895 20.9164C14.778 21.5308 14.6723 22.2521 14.6723 22.9466Z" fill="url(#paint2_linear_227_1942)"/>
<path d="M39.258 16.1076C39.258 15.0124 37.8305 12.9822 34.7638 14.8521L23.5283 21.4236C22.1536 22.2249 21.3076 23.5606 21.3076 25.3237V27.9683V45.1448C21.3076 45.3051 21.4662 45.3852 21.5984 45.3051L24.1099 43.8359C25.1674 43.2215 25.8018 42.0995 25.8018 40.8707V35.8219L34.7903 30.5594V37.2644C34.7903 37.398 34.9489 37.5049 35.0546 37.4247L37.619 35.9021C38.65 35.2877 39.2845 34.1657 39.2845 32.9636L39.258 16.1076ZM34.7638 25.3237L25.7754 30.5862V26.6326C25.7754 25.8312 26.1984 25.11 26.8857 24.7093L33.0455 21.103C34.2087 20.4886 34.7638 21.2098 34.7638 22.1181V25.3237Z" fill="url(#paint3_linear_227_1942)"/>
<path d="M3.01403 8.12058C1.4014 9.05554 1.42784 11.3796 3.01403 12.3145L8.45997 15.4934C9.94041 16.3482 11.7381 16.3482 13.2185 15.4934L26.146 8.25415C26.5161 8.04044 26.9656 8.04044 27.3357 8.25415L30.0058 9.72337C30.2701 9.88365 30.2701 10.2576 30.0058 10.4179L28.5782 11.246C28.5782 11.246 22.2334 14.5852 18.6645 16.6421C16.9725 17.6037 15.4921 19.0462 14.9634 20.8895L19.2461 22.9464C19.6426 21.5306 20.6737 20.2751 21.9955 19.5271L32.3851 13.7571L34.7644 12.368C36.377 11.433 36.3505 9.10897 34.7644 8.17401L28.6575 4.72802C27.1771 3.8732 25.3529 3.8732 23.8725 4.72802L11.7645 11.4063C11.3944 11.62 10.945 11.62 10.5485 11.4063L8.59215 10.1508C8.32778 9.9905 8.32778 9.61652 8.59215 9.45624L10.337 8.44114L20.2771 2.75125H20.3035C20.7794 2.53754 21.8369 2.02999 23.2644 1.86971C23.3966 1.86971 23.4231 1.68272 23.3173 1.6293L22.815 1.30874C20.3035 -0.347475 17.607 -0.427614 14.9634 1.06832L4.75885 7.10549L3.01403 8.12058Z" fill="url(#paint4_linear_227_1942)"/>
<path d="M3.01403 8.12058C1.4014 9.05554 1.42784 11.3796 3.01403 12.3145L8.45997 15.4934C9.94041 16.3482 11.7381 16.3482 13.2185 15.4934L26.146 8.25415C26.5161 8.04044 26.9656 8.04044 27.3357 8.25415L30.0058 9.72337C30.2701 9.88365 30.2701 10.2576 30.0058 10.4179L28.5782 11.246C28.5782 11.246 22.2334 14.5852 18.6645 16.6421C16.9725 17.6037 15.4921 19.0462 14.9634 20.8895L19.2461 22.9464C19.6426 21.5306 20.6737 20.2751 21.9955 19.5271L32.3851 13.7571L34.7644 12.368C36.377 11.433 36.3505 9.10897 34.7644 8.17401L28.6575 4.72802C27.1771 3.8732 25.3529 3.8732 23.8725 4.72802L11.7645 11.4063C11.3944 11.62 10.945 11.62 10.5485 11.4063L8.59215 10.1508C8.32778 9.9905 8.32778 9.61652 8.59215 9.45624L10.337 8.44114L20.2771 2.75125H20.3035C20.7794 2.53754 21.8369 2.02999 23.2644 1.86971C23.3966 1.86971 23.4231 1.68272 23.3173 1.6293L22.815 1.30874C20.3035 -0.347475 17.607 -0.427614 14.9634 1.06832L4.75885 7.10549L3.01403 8.12058Z" fill="url(#paint5_radial_227_1942)"/>
</g>
<defs>
<linearGradient id="paint0_linear_227_1942" x1="4.79847" y1="37.8273" x2="14.9462" y2="20.4329" gradientUnits="userSpaceOnUse">
<stop stop-color="#FF1D25"/>
<stop offset="0.4507" stop-color="#FF1F25"/>
<stop offset="0.6421" stop-color="#FD2625"/>
<stop offset="0.7844" stop-color="#FA3325"/>
<stop offset="0.9016" stop-color="#F64424"/>
<stop offset="1" stop-color="#F15A24"/>
</linearGradient>
<radialGradient id="paint1_radial_227_1942" cx="0" cy="0" r="1" gradientUnits="userSpaceOnUse" gradientTransform="translate(17.1639 21.941) scale(7.8454 7.92747)">
<stop offset="0.1" stop-color="#F15A24"/>
<stop offset="1" stop-color="#F15A24" stop-opacity="0"/>
</radialGradient>
<linearGradient id="paint2_linear_227_1942" x1="0" y1="29.5451" x2="19.2598" y2="29.5451" gradientUnits="userSpaceOnUse">
<stop stop-color="#ED1C24"/>
<stop offset="1" stop-color="#FF1D25" stop-opacity="0"/>
</linearGradient>
<linearGradient id="paint3_linear_227_1942" x1="21.0523" y1="45.1094" x2="38.7814" y2="14.7197" gradientUnits="userSpaceOnUse">
<stop stop-color="#0549CF"/>
<stop offset="0.176" stop-color="#0B52D3"/>
<stop offset="0.4686" stop-color="#1A6CDD"/>
<stop offset="0.8396" stop-color="#3395ED"/>
<stop offset="1" stop-color="#3FA9F5"/>
</linearGradient>
<linearGradient id="paint4_linear_227_1942" x1="18.8937" y1="-0.000204149" x2="18.8937" y2="22.9492" gradientUnits="userSpaceOnUse">
<stop stop-color="#FFD800"/>
<stop offset="0.0494043" stop-color="#FFC907"/>
<stop offset="0.1458" stop-color="#FFB111"/>
<stop offset="0.2485" stop-color="#FFA018"/>
<stop offset="0.3607" stop-color="#FF961D"/>
<stop offset="0.5005" stop-color="#FF931E"/>
<stop offset="0.6513" stop-color="#FE901E"/>
<stop offset="0.7725" stop-color="#FC861F"/>
<stop offset="0.8833" stop-color="#F87521"/>
<stop offset="0.9874" stop-color="#F25D24"/>
<stop offset="0.9995" stop-color="#F15A24"/>
</linearGradient>
<radialGradient id="paint5_radial_227_1942" cx="0" cy="0" r="1" gradientUnits="userSpaceOnUse" gradientTransform="translate(17.1516 22.001) scale(7.34804 7.42491)">
<stop offset="0.1" stop-color="#F15A24"/>
<stop offset="1" stop-color="#F15A24" stop-opacity="0"/>
</radialGradient>
<clipPath id="clip0_227_1942">
<rect width="144" height="46" fill="white"/>
</clipPath>
</defs>
</svg>
