<svg width="144" height="46" viewBox="0 0 144 46" fill="none" xmlns="http://www.w3.org/2000/svg">
<g clip-path="url(#clip0_350_5523)">
<path d="M56.5406 36.7634H54.8988L54.9096 35.9155H56.5406C57.1023 35.9155 57.5704 35.7985 57.9448 35.5645C58.3193 35.3268 58.6001 34.9956 58.7874 34.5707C58.9782 34.1423 59.0736 33.6418 59.0736 33.0693V32.5886C59.0736 32.1386 59.0196 31.7389 58.9116 31.3897C58.8036 31.0368 58.6451 30.7398 58.4363 30.4985C58.2275 30.2537 57.9718 30.0683 57.6694 29.9423C57.3706 29.8162 57.0267 29.7532 56.6378 29.7532H54.8664V28.8999H56.6378C57.1527 28.8999 57.6226 28.9863 58.0474 29.1591C58.4723 29.3284 58.8378 29.575 59.1438 29.8991C59.4534 30.2195 59.6911 30.6084 59.8567 31.0656C60.0223 31.5193 60.1051 32.0306 60.1051 32.5994V33.0693C60.1051 33.6382 60.0223 34.1513 59.8567 34.6085C59.6911 35.0622 59.4516 35.4492 59.1384 35.7697C58.8288 36.0901 58.4543 36.3368 58.015 36.5096C57.5794 36.6788 57.0879 36.7634 56.5406 36.7634ZM55.4551 28.8999V36.7634H54.4127V28.8999H55.4551ZM67.7256 32.5832V33.0801C67.7256 33.6706 67.6518 34.1999 67.5042 34.6679C67.3566 35.136 67.1441 35.5339 66.8669 35.8615C66.5897 36.1891 66.2566 36.4394 65.8678 36.6122C65.4825 36.785 65.0504 36.8714 64.5716 36.8714C64.1071 36.8714 63.6804 36.785 63.2916 36.6122C62.9063 36.4394 62.5715 36.1891 62.2871 35.8615C62.0062 35.5339 61.7884 35.136 61.6336 34.6679C61.4787 34.1999 61.4013 33.6706 61.4013 33.0801V32.5832C61.4013 31.9927 61.4769 31.4653 61.6282 31.0008C61.783 30.5327 62.0008 30.1349 62.2816 29.8072C62.5625 29.476 62.8955 29.224 63.2808 29.0511C63.6696 28.8783 64.0963 28.7919 64.5608 28.7919C65.0396 28.7919 65.4717 28.8783 65.857 29.0511C66.2458 29.224 66.5789 29.476 66.8561 29.8072C67.1369 30.1349 67.3512 30.5327 67.4988 31.0008C67.65 31.4653 67.7256 31.9927 67.7256 32.5832ZM66.6941 33.0801V32.5724C66.6941 32.1044 66.6455 31.6903 66.5483 31.3303C66.4546 30.9702 66.316 30.6678 66.1324 30.4229C65.9488 30.1781 65.7237 29.9927 65.4573 29.8666C65.1945 29.7406 64.8956 29.6776 64.5608 29.6776C64.2367 29.6776 63.9433 29.7406 63.6804 29.8666C63.4212 29.9927 63.198 30.1781 63.0108 30.4229C62.8271 30.6678 62.6849 30.9702 62.5841 31.3303C62.4833 31.6903 62.4329 32.1044 62.4329 32.5724V33.0801C62.4329 33.5518 62.4833 33.9694 62.5841 34.3331C62.6849 34.6931 62.8289 34.9974 63.0162 35.2458C63.207 35.4906 63.432 35.6761 63.6912 35.8021C63.9541 35.9281 64.2475 35.9911 64.5716 35.9911C64.91 35.9911 65.2107 35.9281 65.4735 35.8021C65.7363 35.6761 65.9578 35.4906 66.1378 35.2458C66.3214 34.9974 66.46 34.6931 66.5537 34.3331C66.6473 33.9694 66.6941 33.5518 66.6941 33.0801ZM74.0337 34.2629H75.0707C75.0167 34.7597 74.8744 35.2044 74.644 35.5969C74.4136 35.9893 74.0877 36.3008 73.6665 36.5312C73.2452 36.758 72.7195 36.8714 72.0894 36.8714C71.6286 36.8714 71.2091 36.785 70.8311 36.6122C70.4566 36.4394 70.1344 36.1945 69.8643 35.8777C69.5943 35.5573 69.3855 35.1738 69.2378 34.7273C69.0938 34.2773 69.0218 33.7768 69.0218 33.2259V32.4428C69.0218 31.8919 69.0938 31.3933 69.2378 30.9468C69.3855 30.4967 69.5961 30.1115 69.8697 29.791C70.147 29.4706 70.48 29.224 70.8689 29.0511C71.2577 28.8783 71.6952 28.7919 72.1813 28.7919C72.7753 28.7919 73.2776 28.9035 73.6881 29.1267C74.0985 29.35 74.4172 29.6596 74.644 30.0557C74.8744 30.4481 75.0167 30.9036 75.0707 31.4221H74.0337C73.9833 31.0548 73.8897 30.7398 73.7529 30.4769C73.6161 30.2105 73.4216 30.0053 73.1696 29.8612C72.9176 29.7172 72.5881 29.6452 72.1813 29.6452C71.832 29.6452 71.5242 29.7118 71.2577 29.845C70.9949 29.9783 70.7735 30.1673 70.5934 30.4121C70.417 30.657 70.2838 30.9504 70.1938 31.2924C70.1038 31.6345 70.0588 32.0144 70.0588 32.432V33.2259C70.0588 33.6112 70.0984 33.973 70.1776 34.3115C70.2604 34.6499 70.3846 34.947 70.5502 35.2026C70.7158 35.4582 70.9265 35.6599 71.1821 35.8075C71.4378 35.9515 71.7402 36.0235 72.0894 36.0235C72.5323 36.0235 72.8852 35.9533 73.148 35.8129C73.4108 35.6725 73.6089 35.4708 73.7421 35.208C73.8789 34.9452 73.9761 34.6301 74.0337 34.2629ZM80.9899 28.8999H82.0269V34.2197C82.0269 34.8101 81.8954 35.3016 81.6326 35.6941C81.3698 36.0865 81.0205 36.3818 80.5849 36.5798C80.1528 36.7742 79.6829 36.8714 79.1753 36.8714C78.6424 36.8714 78.1599 36.7742 77.7278 36.5798C77.2994 36.3818 76.9591 36.0865 76.7071 35.6941C76.4587 35.3016 76.3345 34.8101 76.3345 34.2197V28.8999H77.366V34.2197C77.366 34.6301 77.4416 34.9686 77.5928 35.235C77.7441 35.5014 77.9547 35.6995 78.2247 35.8291C78.4984 35.9587 78.8152 36.0235 79.1753 36.0235C79.5389 36.0235 79.8558 35.9587 80.1258 35.8291C80.3994 35.6995 80.6119 35.5014 80.7631 35.235C80.9143 34.9686 80.9899 34.6301 80.9899 34.2197V28.8999ZM83.9927 28.8999H85.0027L87.5788 35.3106L90.1496 28.8999H91.165L87.9677 36.7634H87.1792L83.9927 28.8999ZM83.6633 28.8999H84.5544L84.7002 33.6958V36.7634H83.6633V28.8999ZM90.5979 28.8999H91.489V36.7634H90.4521V33.6958L90.5979 28.8999ZM98.3156 35.9155V36.7634H94.1516V35.9155H98.3156ZM94.3622 28.8999V36.7634H93.3199V28.8999H94.3622ZM97.7647 32.2808V33.1287H94.1516V32.2808H97.7647ZM98.2616 28.8999V29.7532H94.1516V28.8999H98.2616ZM105.655 28.8999V36.7634H104.607L100.649 30.6984V36.7634H99.6064V28.8999H100.649L104.624 34.9812V28.8999H105.655ZM110.246 28.8999V36.7634H109.22V28.8999H110.246ZM112.773 28.8999V29.7532H106.698V28.8999H112.773ZM116.419 29.5966L113.816 36.7634H112.752L115.749 28.8999H116.435L116.419 29.5966ZM118.601 36.7634L115.992 29.5966L115.976 28.8999H116.662L119.67 36.7634H118.601ZM118.466 33.8524V34.7057H114.048V33.8524H118.466ZM122.927 28.8999V36.7634H121.901V28.8999H122.927ZM125.454 28.8999V29.7532H119.379V28.8999H125.454ZM127.739 28.8999V36.7634H126.697V28.8999H127.739ZM135.689 32.5832V33.0801C135.689 33.6706 135.615 34.1999 135.467 34.6679C135.32 35.136 135.107 35.5339 134.83 35.8615C134.553 36.1891 134.22 36.4394 133.831 36.6122C133.446 36.785 133.014 36.8714 132.535 36.8714C132.07 36.8714 131.644 36.785 131.255 36.6122C130.87 36.4394 130.535 36.1891 130.25 35.8615C129.969 35.5339 129.752 35.136 129.597 34.6679C129.442 34.1999 129.365 33.6706 129.365 33.0801V32.5832C129.365 31.9927 129.44 31.4653 129.591 31.0008C129.746 30.5327 129.964 30.1349 130.245 29.8072C130.526 29.476 130.859 29.224 131.244 29.0511C131.633 28.8783 132.06 28.7919 132.524 28.7919C133.003 28.7919 133.435 28.8783 133.82 29.0511C134.209 29.224 134.542 29.476 134.819 29.8072C135.1 30.1349 135.314 30.5327 135.462 31.0008C135.613 31.4653 135.689 31.9927 135.689 32.5832ZM134.657 33.0801V32.5724C134.657 32.1044 134.609 31.6903 134.512 31.3303C134.418 30.9702 134.279 30.6678 134.096 30.4229C133.912 30.1781 133.687 29.9927 133.421 29.8666C133.158 29.7406 132.859 29.6776 132.524 29.6776C132.2 29.6776 131.907 29.7406 131.644 29.8666C131.384 29.9927 131.161 30.1781 130.974 30.4229C130.79 30.6678 130.648 30.9702 130.547 31.3303C130.447 31.6903 130.396 32.1044 130.396 32.5724V33.0801C130.396 33.5518 130.447 33.9694 130.547 34.3331C130.648 34.6931 130.792 34.9974 130.979 35.2458C131.17 35.4906 131.395 35.6761 131.655 35.8021C131.917 35.9281 132.211 35.9911 132.535 35.9911C132.873 35.9911 133.174 35.9281 133.437 35.8021C133.7 35.6761 133.921 35.4906 134.101 35.2458C134.285 34.9974 134.423 34.6931 134.517 34.3331C134.611 33.9694 134.657 33.5518 134.657 33.0801ZM143.299 28.8999V36.7634H142.251L138.292 30.6984V36.7634H137.25V28.8999H138.292L142.267 34.9812V28.8999H143.299Z" fill="#737373"/>
<path d="M67.2504 14.9757C67.7527 15.6168 67.9907 16.4182 67.9907 17.3799C67.9907 18.7155 67.4619 19.7573 66.4309 20.4786C65.3999 21.1998 63.893 21.5738 61.9103 21.5738H54.4287C54.2172 21.5738 54.0586 21.4135 54.0586 21.1998V6.61446C54.0586 6.40076 54.2172 6.24048 54.4287 6.24048H61.4608C63.3114 6.24048 64.7125 6.58775 65.7171 7.309C66.6953 8.03026 67.1976 8.99193 67.1976 10.2207C67.1976 10.9687 67.0125 11.6365 66.6688 12.1975C66.4309 12.5982 66.1401 12.9188 65.77 13.2126C65.5585 13.3729 65.5849 13.7202 65.8229 13.827C66.4309 14.1209 66.8803 14.4948 67.2504 14.9757ZM57.5747 9.28577V12.1708C57.5747 12.3845 57.7333 12.5448 57.9448 12.5448H61.0643C61.9367 12.5448 62.5976 12.3845 63.0206 12.0907C63.47 11.7968 63.6815 11.3427 63.6815 10.7283C63.6815 10.1406 63.47 9.68647 63.0206 9.39263C62.5712 9.09878 61.9103 8.9385 61.0643 8.9385H57.9448C57.7597 8.91179 57.5747 9.07207 57.5747 9.28577ZM63.7608 18.4217C64.2367 18.1278 64.4746 17.647 64.4746 17.0059C64.4746 15.7503 63.5493 15.1092 61.6723 15.1092H57.9448C57.7333 15.1092 57.5747 15.2695 57.5747 15.4832V18.5285C57.5747 18.7422 57.7333 18.9025 57.9448 18.9025H61.6723C62.5976 18.8758 63.285 18.7422 63.7608 18.4217Z" fill="#1E1E1E"/>
<path d="M71.5596 6.24048H74.3354C74.5469 6.24048 74.7055 6.40076 74.7055 6.61446V21.1998C74.7055 21.4135 74.5469 21.5738 74.3354 21.5738H71.5596C71.3481 21.5738 71.1895 21.4135 71.1895 21.1998V6.61446C71.1895 6.42747 71.3481 6.24048 71.5596 6.24048Z" fill="#1E1E1E"/>
<path d="M93.4227 14.3345C93.4227 18.9826 90.2239 21.8142 85.994 21.8142C81.2619 21.8142 77.8516 18.288 77.8516 13.9338C77.8516 9.52613 81.3148 6 85.7561 6C88.4791 6 90.8055 7.28223 92.1273 9.15215C92.2595 9.31243 92.1802 9.55284 92.0216 9.6597L89.6951 10.9954C89.5365 11.0755 89.3515 11.0488 89.2457 10.9152C88.5584 10.0337 87.2894 9.36585 85.7297 9.36585C83.1917 9.36585 81.2883 11.2625 81.2883 13.9338C81.2883 16.525 83.086 18.4216 86.0205 18.4216C87.8975 18.4216 89.5101 17.4065 89.8802 16.0976C89.9066 15.964 89.8538 15.8571 89.7216 15.8571H86.2055C86.0205 15.8571 85.8618 15.6969 85.8618 15.5099V13.3995C85.8618 13.2125 86.0205 13.0523 86.2055 13.0523H93.0526C93.2376 13.0523 93.3963 13.2125 93.3963 13.3995V14.3345H93.4227Z" fill="#1E1E1E"/>
<path d="M109.549 14.9757C110.052 15.6168 110.289 16.4182 110.289 17.3799C110.289 18.7155 109.761 19.7573 108.73 20.4786C107.699 21.1998 106.192 21.5738 104.209 21.5738H96.7275C96.516 21.5738 96.3574 21.4135 96.3574 21.1998V6.61446C96.3574 6.40076 96.516 6.24048 96.7275 6.24048H103.76C105.61 6.24048 107.011 6.58775 108.016 7.309C108.994 8.03026 109.496 8.99193 109.496 10.2207C109.496 10.9687 109.311 11.6365 108.968 12.1975C108.73 12.5982 108.439 12.9188 108.069 13.2126C107.857 13.3729 107.884 13.7202 108.122 13.827C108.73 14.1209 109.179 14.4948 109.549 14.9757ZM99.8735 9.28577V12.1708C99.8735 12.3845 100.032 12.5448 100.244 12.5448H103.363C104.236 12.5448 104.896 12.3845 105.319 12.0907C105.769 11.7968 105.98 11.3427 105.98 10.7283C105.98 10.1406 105.769 9.68647 105.319 9.39263C104.87 9.09878 104.209 8.9385 103.363 8.9385H100.244C100.032 8.91179 99.8735 9.07207 99.8735 9.28577ZM106.06 18.4217C106.535 18.1278 106.773 17.647 106.773 17.0059C106.773 15.7503 105.848 15.1092 103.971 15.1092H100.244C100.032 15.1092 99.8735 15.2695 99.8735 15.4832V18.5285C99.8735 18.7422 100.032 18.9025 100.244 18.9025H103.971C104.896 18.8758 105.584 18.7422 106.06 18.4217Z" fill="#737373"/>
<path d="M116.582 20.7991C115.313 20.1045 114.335 19.1696 113.621 17.9675C112.907 16.7654 112.537 15.403 112.537 13.9071C112.537 12.4111 112.907 11.0488 113.621 9.84669C114.335 8.6446 115.313 7.70964 116.582 7.0151C117.851 6.32056 119.252 6 120.838 6C122.398 6 123.826 6.34727 125.068 7.0151C126.311 7.70964 127.315 8.6446 128.029 9.84669C128.743 11.0488 129.113 12.4111 129.113 13.9071C129.113 15.403 128.743 16.7654 128.029 17.9675C127.315 19.1696 126.311 20.1045 125.068 20.7991C123.826 21.4936 122.398 21.8142 120.838 21.8142C119.252 21.8142 117.824 21.4669 116.582 20.7991ZM123.244 18.1812C123.958 17.7538 124.539 17.1928 124.936 16.4448C125.359 15.6969 125.544 14.8688 125.544 13.9071C125.544 12.9721 125.332 12.1173 124.936 11.3693C124.513 10.6214 123.958 10.0337 123.244 9.63298C122.53 9.20557 121.711 9.01858 120.812 9.01858C119.913 9.01858 119.12 9.23229 118.38 9.63298C117.666 10.0604 117.084 10.6214 116.688 11.3693C116.265 12.1173 116.08 12.9454 116.08 13.9071C116.08 14.842 116.291 15.6969 116.688 16.4448C117.111 17.1928 117.666 17.7805 118.38 18.1812C119.093 18.6086 119.913 18.7956 120.812 18.7956C121.711 18.7956 122.53 18.5819 123.244 18.1812Z" fill="#737373"/>
<path d="M141.194 21.3868L137.942 16.6853C137.81 16.4716 137.493 16.4716 137.361 16.6853L134.162 21.4135C134.083 21.5204 133.977 21.5738 133.871 21.5738H130.752C130.461 21.5738 130.276 21.2265 130.461 20.9861L135.484 13.9873C135.563 13.8537 135.563 13.6934 135.484 13.5599L130.725 6.82817C130.567 6.58775 130.725 6.24048 131.016 6.24048H134.109C134.215 6.24048 134.347 6.2939 134.4 6.40076L137.467 10.7817C137.599 10.9954 137.916 10.9954 138.048 10.7817L141.088 6.40076C141.168 6.2939 141.274 6.24048 141.379 6.24048H144.261C144.552 6.24048 144.737 6.58775 144.552 6.82817L139.846 13.4263C139.767 13.5599 139.767 13.7202 139.846 13.8537L144.922 20.9861C145.107 21.2265 144.922 21.5738 144.631 21.5738H141.485C141.353 21.5471 141.247 21.4937 141.194 21.3868Z" fill="#737373"/>
<path d="M14.6723 22.9466V27.7817C14.6723 27.8885 14.5401 27.9687 14.4344 27.9152L4.38847 22.1986C4.22985 22.1185 4.1241 21.9315 4.1241 21.7445V17.6307C4.1241 16.7225 3.5425 15.3868 2.69653 14.719C1.90343 14.1046 0.396549 13.223 0.317239 13.1429C0.158619 13.036 0.0264366 13.1162 0.0264366 13.2765L0 19.0465V25.0035V32.59V32.777C0 34.1661 0.740224 35.4751 1.92987 36.1696C2.51147 36.5169 3.19882 36.8909 3.91261 37.3183C4.01836 37.3717 4.15054 37.2916 4.15054 37.1847V27.6214C4.15054 27.5146 4.28272 27.4344 4.38847 27.4878L14.4344 33.2044C14.593 33.2846 14.6987 33.4716 14.6987 33.6586V41.0581C14.6987 42.6342 15.5183 44.0767 16.8665 44.8781L18.7964 46C18.9021 46.0535 19.0608 45.9733 19.0608 45.8665V42.6876V24.5227C19.0608 23.9884 19.1401 23.4542 19.2723 22.9733L14.9895 20.9164C14.778 21.5308 14.6723 22.2521 14.6723 22.9466Z" fill="url(#paint0_linear_350_5523)"/>
<path d="M14.6723 22.9466V27.7817C14.6723 27.8885 14.5401 27.9687 14.4344 27.9152L4.38847 22.1986C4.22985 22.1185 4.1241 21.9315 4.1241 21.7445V17.6307C4.1241 16.7225 3.5425 15.3868 2.69653 14.719C1.90343 14.1046 0.396549 13.223 0.317239 13.1429C0.158619 13.036 0.0264366 13.1162 0.0264366 13.2765L0 19.0465V25.0035V32.59V32.777C0 34.1661 0.740224 35.4751 1.92987 36.1696C2.51147 36.5169 3.19882 36.8909 3.91261 37.3183C4.01836 37.3717 4.15054 37.2916 4.15054 37.1847V27.6214C4.15054 27.5146 4.28272 27.4344 4.38847 27.4878L14.4344 33.2044C14.593 33.2846 14.6987 33.4716 14.6987 33.6586V41.0581C14.6987 42.6342 15.5183 44.0767 16.8665 44.8781L18.7964 46C18.9021 46.0535 19.0608 45.9733 19.0608 45.8665V42.6876V24.5227C19.0608 23.9884 19.1401 23.4542 19.2723 22.9733L14.9895 20.9164C14.778 21.5308 14.6723 22.2521 14.6723 22.9466Z" fill="url(#paint1_radial_350_5523)"/>
<path d="M14.6723 22.9466V27.7817C14.6723 27.8885 14.5401 27.9687 14.4344 27.9152L4.38847 22.1986C4.22985 22.1185 4.1241 21.9315 4.1241 21.7445V17.6307C4.1241 16.7225 3.5425 15.3868 2.69653 14.719C1.90343 14.1046 0.396549 13.223 0.317239 13.1429C0.158619 13.036 0.0264366 13.1162 0.0264366 13.2765L0 19.0465V25.0035V32.59V32.777C0 34.1661 0.740224 35.4751 1.92987 36.1696C2.51147 36.5169 3.19882 36.8909 3.91261 37.3183C4.01836 37.3717 4.15054 37.2916 4.15054 37.1847V27.6214C4.15054 27.5146 4.28272 27.4344 4.38847 27.4878L14.4344 33.2044C14.593 33.2846 14.6987 33.4716 14.6987 33.6586V41.0581C14.6987 42.6342 15.5183 44.0767 16.8665 44.8781L18.7964 46C18.9021 46.0535 19.0608 45.9733 19.0608 45.8665V42.6876V24.5227C19.0608 23.9884 19.1401 23.4542 19.2723 22.9733L14.9895 20.9164C14.778 21.5308 14.6723 22.2521 14.6723 22.9466Z" fill="url(#paint2_linear_350_5523)"/>
<path d="M39.259 16.1081C39.259 15.0129 37.8314 12.9827 34.7648 14.8526L23.5293 21.424C22.1546 22.2254 21.3086 23.5611 21.3086 25.3242V27.9688V45.1453C21.3086 45.3056 21.4672 45.3857 21.5994 45.3056L24.1109 43.8364C25.1683 43.222 25.8028 42.1 25.8028 40.8712V35.8224L34.7912 30.5599V37.2649C34.7912 37.3985 34.9499 37.5053 35.0556 37.4252L37.62 35.9026C38.651 35.2882 39.2855 34.1662 39.2855 32.9641L39.259 16.1081ZM34.7648 25.3242L25.7764 30.5866V26.6331C25.7764 25.8317 26.1994 25.1105 26.8867 24.7098L33.0464 21.1035C34.2096 20.4891 34.7648 21.2103 34.7648 22.1186V25.3242Z" fill="url(#paint3_linear_350_5523)"/>
<path d="M3.01403 8.12083C1.4014 9.05579 1.42784 11.3798 3.01403 12.3148L8.45997 15.4936C9.94041 16.3485 11.7381 16.3485 13.2185 15.4936L26.146 8.25439C26.5161 8.04069 26.9656 8.04069 27.3357 8.25439L30.0058 9.72361C30.2701 9.88389 30.2701 10.2579 30.0058 10.4182L28.5782 11.2463C28.5782 11.2463 22.2334 14.5854 18.6645 16.6423C16.9725 17.604 15.4921 19.0465 14.9634 20.8897L19.2461 22.9466C19.6426 21.5308 20.6737 20.2753 21.9955 19.5273L32.3851 13.7573L34.7644 12.3682C36.377 11.4333 36.3505 9.10921 34.7644 8.17425L28.6575 4.72826C27.1771 3.87344 25.3529 3.87344 23.8725 4.72826L11.7645 11.4065C11.3944 11.6202 10.945 11.6202 10.5485 11.4065L8.59215 10.151C8.32778 9.99075 8.32778 9.61676 8.59215 9.45648L10.337 8.44139L20.2771 2.75149H20.3035C20.7794 2.53779 21.8369 2.03024 23.2644 1.86996C23.3966 1.86996 23.4231 1.68297 23.3173 1.62954L22.815 1.30898C20.3035 -0.34723 17.607 -0.42737 14.9634 1.06856L4.75885 7.10573L3.01403 8.12083Z" fill="url(#paint4_linear_350_5523)"/>
<path d="M3.01403 8.12083C1.4014 9.05579 1.42784 11.3798 3.01403 12.3148L8.45997 15.4936C9.94041 16.3485 11.7381 16.3485 13.2185 15.4936L26.146 8.25439C26.5161 8.04069 26.9656 8.04069 27.3357 8.25439L30.0058 9.72361C30.2701 9.88389 30.2701 10.2579 30.0058 10.4182L28.5782 11.2463C28.5782 11.2463 22.2334 14.5854 18.6645 16.6423C16.9725 17.604 15.4921 19.0465 14.9634 20.8897L19.2461 22.9466C19.6426 21.5308 20.6737 20.2753 21.9955 19.5273L32.3851 13.7573L34.7644 12.3682C36.377 11.4333 36.3505 9.10921 34.7644 8.17425L28.6575 4.72826C27.1771 3.87344 25.3529 3.87344 23.8725 4.72826L11.7645 11.4065C11.3944 11.6202 10.945 11.6202 10.5485 11.4065L8.59215 10.151C8.32778 9.99075 8.32778 9.61676 8.59215 9.45648L10.337 8.44139L20.2771 2.75149H20.3035C20.7794 2.53779 21.8369 2.03024 23.2644 1.86996C23.3966 1.86996 23.4231 1.68297 23.3173 1.62954L22.815 1.30898C20.3035 -0.34723 17.607 -0.42737 14.9634 1.06856L4.75885 7.10573L3.01403 8.12083Z" fill="url(#paint5_radial_350_5523)"/>
</g>
<defs>
<linearGradient id="paint0_linear_350_5523" x1="4.79847" y1="37.8273" x2="14.9462" y2="20.4329" gradientUnits="userSpaceOnUse">
<stop stop-color="#FF1D25"/>
<stop offset="0.4507" stop-color="#FF1F25"/>
<stop offset="0.6421" stop-color="#FD2625"/>
<stop offset="0.7844" stop-color="#FA3325"/>
<stop offset="0.9016" stop-color="#F64424"/>
<stop offset="1" stop-color="#F15A24"/>
</linearGradient>
<radialGradient id="paint1_radial_350_5523" cx="0" cy="0" r="1" gradientUnits="userSpaceOnUse" gradientTransform="translate(17.1639 21.941) scale(7.8454 7.92747)">
<stop offset="0.1" stop-color="#F15A24"/>
<stop offset="1" stop-color="#F15A24" stop-opacity="0"/>
</radialGradient>
<linearGradient id="paint2_linear_350_5523" x1="0" y1="29.5451" x2="19.2598" y2="29.5451" gradientUnits="userSpaceOnUse">
<stop stop-color="#ED1C24"/>
<stop offset="1" stop-color="#FF1D25" stop-opacity="0"/>
</linearGradient>
<linearGradient id="paint3_linear_350_5523" x1="21.0533" y1="45.1099" x2="38.7824" y2="14.7202" gradientUnits="userSpaceOnUse">
<stop stop-color="#0549CF"/>
<stop offset="0.176" stop-color="#0B52D3"/>
<stop offset="0.4686" stop-color="#1A6CDD"/>
<stop offset="0.8396" stop-color="#3395ED"/>
<stop offset="1" stop-color="#3FA9F5"/>
</linearGradient>
<linearGradient id="paint4_linear_350_5523" x1="18.8937" y1="3.99914e-05" x2="18.8937" y2="22.9495" gradientUnits="userSpaceOnUse">
<stop stop-color="#FFD800"/>
<stop offset="0.0494043" stop-color="#FFC907"/>
<stop offset="0.1458" stop-color="#FFB111"/>
<stop offset="0.2485" stop-color="#FFA018"/>
<stop offset="0.3607" stop-color="#FF961D"/>
<stop offset="0.5005" stop-color="#FF931E"/>
<stop offset="0.6513" stop-color="#FE901E"/>
<stop offset="0.7725" stop-color="#FC861F"/>
<stop offset="0.8833" stop-color="#F87521"/>
<stop offset="0.9874" stop-color="#F25D24"/>
<stop offset="0.9995" stop-color="#F15A24"/>
</linearGradient>
<radialGradient id="paint5_radial_350_5523" cx="0" cy="0" r="1" gradientUnits="userSpaceOnUse" gradientTransform="translate(17.1516 22.0013) scale(7.34804 7.42491)">
<stop offset="0.1" stop-color="#F15A24"/>
<stop offset="1" stop-color="#F15A24" stop-opacity="0"/>
</radialGradient>
<clipPath id="clip0_350_5523">
<rect width="144" height="46" fill="white"/>
</clipPath>
</defs>
</svg>
