<svg width="19" height="19" viewBox="0 0 19 19" fill="none" xmlns="http://www.w3.org/2000/svg">
<path d="M3.85938 8.3125H0.890625C0.39874 8.3125 0 8.71124 0 9.20312V18.1094C0 18.6013 0.39874 19 0.890625 19H3.85938C4.35126 19 4.75 18.6013 4.75 18.1094V9.20312C4.75 8.71124 4.35126 8.3125 3.85938 8.3125ZM2.375 17.5156C1.88312 17.5156 1.48438 17.1169 1.48438 16.625C1.48438 16.1331 1.88312 15.7344 2.375 15.7344C2.86688 15.7344 3.26562 16.1331 3.26562 16.625C3.26562 17.1169 2.86688 17.5156 2.375 17.5156ZM14.25 3.02263C14.25 4.59666 13.2863 5.47957 13.0151 6.53125H16.79C18.0293 6.53125 18.9942 7.56089 19 8.68723C19.0031 9.3529 18.7199 10.0695 18.2786 10.5129L18.2745 10.517C18.6395 11.383 18.5802 12.5965 17.9291 13.466C18.2512 14.427 17.9265 15.6074 17.3212 16.2402C17.4807 16.8933 17.4044 17.4491 17.093 17.8965C16.3356 18.9847 14.4584 19 12.871 19L12.7654 19C10.9735 18.9993 9.50698 18.3469 8.32861 17.8227C7.73645 17.5592 6.9622 17.2331 6.37476 17.2223C6.13206 17.2179 5.9375 17.0198 5.9375 16.7771V8.8442C5.9375 8.72545 5.98507 8.61149 6.06954 8.52799C7.53959 7.07539 8.17171 5.53746 9.37661 4.33052C9.92598 3.78011 10.1258 2.94871 10.3189 2.1447C10.484 1.45814 10.8291 0 11.5781 0C12.4688 0 14.25 0.296875 14.25 3.02263Z" fill="#737373"/>
</svg>
