<svg width="24" height="24" viewBox="0 0 24 24" fill="none" xmlns="http://www.w3.org/2000/svg">
  <path
    d="M6.25 3C4.74011 3 3.5 4.24011 3.5 5.75V7.25C3.5 8.035 3.83704 8.74525 4.37109 9.24805C3.83656 9.75003 3.5 10.4605 3.5 11.25V12.75C3.5 13.5385 3.83466 14.248 4.36816 14.75C3.83466 15.252 3.5 15.9615 3.5 16.75V18.25C3.5 19.7665 4.7335 21 6.25 21H13.3579L12.9051 19.5H6.25C5.561 19.5 5 18.939 5 18.25V16.75C5 16.061 5.561 15.5 6.25 15.5H11.9994L11.6344 14H10.7563H6.25C5.561 14 5 13.439 5 12.75V11.25C5 10.561 5.561 10 6.25 10H17.75C18.365 10 18.874 10.4472 18.9775 11.0332C19.0368 11.0263 19.0261 12.3231 19.0261 12.3231H20.4932V11.1143C20.457 10.3799 20.1311 9.72105 19.6289 9.24805C20.163 8.74525 20.5 8.035 20.5 7.25V5.75C20.5 4.24011 19.2599 3 17.75 3H6.25ZM6.25 4.5H17.75C18.4491 4.5 19 5.05089 19 5.75V7.25C19 7.94911 18.4491 8.5 17.75 8.5H6.25C5.55089 8.5 5 7.94911 5 7.25V5.75C5 5.05089 5.55089 4.5 6.25 4.5Z"
    fill="#606770" />
  <path
    d="M22.9207 14.3711C22.8156 14.1761 22.6652 14.0135 22.484 13.8993C22.3029 13.7852 22.0972 13.7232 21.8871 13.7196H14.1049L13.7523 12.2472C13.7166 12.105 13.6371 11.98 13.5267 11.8925C13.4163 11.8049 13.2815 11.76 13.1443 11.765H11.9283C11.7671 11.765 11.6124 11.8337 11.4984 11.9559C11.3844 12.078 11.3203 12.2438 11.3203 12.4166C11.3203 12.5894 11.3844 12.7551 11.4984 12.8773C11.6124 12.9994 11.7671 13.0681 11.9283 13.0681H12.6822L14.3602 19.7527C14.3959 19.8949 14.4754 20.0199 14.5858 20.1074C14.6962 20.195 14.831 20.2399 14.9682 20.2349H20.4401C20.5524 20.2345 20.6624 20.2008 20.7579 20.1376C20.8534 20.0743 20.9307 19.984 20.9812 19.8765L22.9754 15.6025C23.0618 15.4084 23.1021 15.1943 23.0925 14.9794C23.083 14.7646 23.0239 14.5556 22.9207 14.3711Z"
    fill="#606770" />
  <path
    d="M14.9428 23.0589C15.443 23.0589 15.8484 22.6375 15.8484 22.1177C15.8484 21.5979 15.443 21.1765 14.9428 21.1765C14.4426 21.1765 14.0371 21.5979 14.0371 22.1177C14.0371 22.6375 14.4426 23.0589 14.9428 23.0589Z"
    fill="#606770" />
  <path
    d="M20.3783 23.0589C20.8785 23.0589 21.284 22.6375 21.284 22.1177C21.284 21.5979 20.8785 21.1765 20.3783 21.1765C19.8781 21.1765 19.4727 21.5979 19.4727 22.1177C19.4727 22.6375 19.8781 23.0589 20.3783 23.0589Z"
    fill="#606770" />
</svg>