<svg width="20" height="20" viewBox="0 0 20 20" fill="none" xmlns="http://www.w3.org/2000/svg">
<path d="M3.25 0C1.74011 0 0.5 1.24011 0.5 2.75V4.25C0.5 5.035 0.837043 5.74525 1.37109 6.24805C0.83656 6.75003 0.5 7.46049 0.5 8.25V9.75C0.5 10.5385 0.834664 11.248 1.36816 11.75C0.834664 12.252 0.5 12.9615 0.5 13.75V15.25C0.5 16.7665 1.7335 18 3.25 18H9.52832C9.23132 17.5365 8.98988 17.034 8.81738 16.5H3.25C2.561 16.5 2 15.939 2 15.25V13.75C2 13.061 2.561 12.5 3.25 12.5H8.81738C8.98988 11.966 9.2318 11.4635 9.5293 11H3.25C2.561 11 2 10.439 2 9.75V8.25C2 7.561 2.561 7 3.25 7H14.75C15.3815 7 15.9004 7.47303 15.9834 8.08203C16.5119 8.16253 17.0215 8.3 17.5 8.5V8.25C17.5 7.46049 17.1634 6.75003 16.6289 6.24805C17.163 5.74525 17.5 5.035 17.5 4.25V2.75C17.5 1.24011 16.2599 0 14.75 0H3.25ZM3.25 1.5H14.75C15.4491 1.5 16 2.05089 16 2.75V4.25C16 4.94911 15.4491 5.5 14.75 5.5H3.25C2.55089 5.5 2 4.94911 2 4.25V2.75C2 2.05089 2.55089 1.5 3.25 1.5ZM15 9C14.7065 9 14.4192 9.02477 14.1387 9.07227L13.9658 9.78809C13.6973 10.9006 12.5526 11.5618 11.4551 11.2373L10.8525 11.0586C10.4905 11.5251 10.2005 12.0554 10 12.6289L10.4473 13.0586C11.2648 13.8456 11.2648 15.1544 10.4473 15.9414L10 16.3711C10.2005 16.9446 10.49 17.4744 10.8525 17.9414L11.4551 17.7627C12.5526 17.4382 13.6973 18.0994 13.9658 19.2119L14.1387 19.9277C14.4192 19.9752 14.707 20 15 20C15.2935 20 15.5808 19.9752 15.8613 19.9277L16.0342 19.2119C16.3027 18.0994 17.4474 17.4382 18.5449 17.7627L19.1475 17.9414C19.5095 17.4749 19.7995 16.9446 20 16.3711L19.5527 15.9414C18.7352 15.1549 18.7352 13.8451 19.5527 13.0586L20 12.6289C19.7995 12.0554 19.51 11.5256 19.1475 11.0586L18.5449 11.2373C17.4474 11.5618 16.3027 10.9006 16.0342 9.78809L15.8613 9.07227C15.5808 9.02477 15.2935 9 15 9ZM15 13C15.8285 13 16.5 13.6715 16.5 14.5C16.5 15.3285 15.8285 16 15 16C14.1715 16 13.5 15.3285 13.5 14.5C13.5 13.6715 14.1715 13 15 13Z" fill="#606770"/>
</svg>
