<svg width="21" height="20" viewBox="0 0 21 20" fill="none" xmlns="http://www.w3.org/2000/svg">
<path fill-rule="evenodd" clip-rule="evenodd" d="M9.85651 6.3379C10.3746 5.63969 10.5604 4.90384 9.97444 4.25431C8.65949 2.41433 7.77515 1.27649 7.22044 0.728537C6.16589 -0.313196 4.43112 -0.172285 3.51779 0.727647C3.02723 1.21101 2.86116 1.377 2.35747 1.88861C-0.448184 4.69577 1.26285 10.63 5.81139 15.183C10.3589 19.735 16.2926 21.4469 19.1041 18.6338C19.5689 18.1858 19.9624 17.792 20.2728 17.464C21.1678 16.518 21.3037 14.8597 20.2669 13.7824C19.7354 13.2301 18.6503 12.3885 16.7329 11.0169C16.1457 10.4918 15.4494 10.6056 14.811 11.0244C14.504 11.2259 14.2805 11.4297 13.8585 11.8521L13.0923 12.6187C12.9914 12.7197 11.621 12.0334 10.2907 10.7018C8.95972 9.36953 8.2739 7.99906 8.37435 7.89862L9.14112 7.13142C9.27499 6.99742 9.339 6.93254 9.42108 6.84627C9.59209 6.66654 9.73368 6.50344 9.85651 6.3379ZM14.5038 14.0328L15.2702 13.2659C15.5024 13.0335 15.6529 12.8905 15.7753 12.792C17.455 13.9982 18.4278 14.7567 18.8251 15.1695C19.0637 15.4174 19.0266 15.8697 18.8192 16.0889C18.5322 16.3922 18.1594 16.7653 17.7018 17.2066C15.8838 19.0254 11.094 17.6435 7.22318 13.7689C3.3512 9.89313 1.96993 5.1026 3.77425 3.2973C4.27591 2.78779 4.43485 2.62893 4.91841 2.15246C5.09971 1.97382 5.59357 1.9337 5.81413 2.15157C6.24119 2.57345 7.03339 3.5878 8.19876 5.21114C8.13843 5.28604 8.06308 5.37068 7.97138 5.46705C7.90408 5.53779 7.84801 5.59463 7.72543 5.71733L6.95941 6.48377C5.65626 7.78681 6.76607 10.0045 8.87502 12.1156C10.9825 14.2251 13.2011 15.3362 14.5038 14.0328ZM12.6564 0.0693359C16.9797 0.593374 20.4078 4.02142 20.9318 8.34474L18.9564 8.67398C18.5749 5.19161 15.8095 2.4262 12.3271 2.04477L12.6564 0.0693359ZM11.9973 4.02197C14.6388 4.25823 16.7426 6.36204 16.9789 9.00356L14.9971 9.33386C14.913 7.53297 13.4679 6.08785 11.667 6.00375L11.9973 4.02197Z" fill="white"/>
</svg>
