<svg width="24" height="24" viewBox="0 0 24 24" fill="none" xmlns="http://www.w3.org/2000/svg">
<path d="M3.74102 3.00006C3.54381 3.00265 3.35555 3.08281 3.21701 3.22318C3.07847 3.36355 3.00079 3.55284 3.00078 3.75006V7.64069C2.99193 7.7068 2.99193 7.7738 3.00078 7.83991V20.2501C3.0008 20.449 3.07983 20.6397 3.22048 20.7804C3.36112 20.921 3.55188 21 3.75078 21.0001H20.2508C20.4497 21 20.6404 20.921 20.7811 20.7804C20.9217 20.6397 21.0008 20.449 21.0008 20.2501V11.6114C21.0143 11.5299 21.0143 11.4468 21.0008 11.3653V6.25006C21.0008 6.13009 20.972 6.01187 20.9168 5.90534C20.8616 5.7988 20.7817 5.70705 20.6837 5.63779C20.5858 5.56853 20.4726 5.52378 20.3538 5.50729C20.235 5.4908 20.1139 5.50306 20.0008 5.54303L16.1297 6.90924L12.451 4.15045C12.3559 4.07907 12.2452 4.0313 12.1281 4.0111C12.0109 3.99089 11.8906 3.99883 11.7772 4.03424L8.075 5.19049L4.10137 3.08698C3.99042 3.02831 3.86652 2.99843 3.74102 3.00006ZM4.50078 4.99616L7.6502 6.66315C7.7377 6.70939 7.83349 6.73785 7.93204 6.7469C8.03059 6.75595 8.12996 6.74541 8.22442 6.71588L11.8582 5.58014L15.5506 8.34967C15.6494 8.42388 15.7651 8.47251 15.8872 8.49125C16.0094 8.50999 16.1343 8.49826 16.2508 8.45709L19.5008 7.30963V11.1895L16.5008 14.1895L12.5311 10.2198C12.4458 10.1346 12.3413 10.0713 12.2264 10.0351C12.1115 9.99888 11.9896 9.99089 11.8709 10.0118L7.99004 10.6964L4.50078 7.42584V4.99616ZM4.50078 9.48053L5.39141 10.3155C5.30351 10.4383 5.25078 10.5876 5.25078 10.7501C5.25078 11.1641 5.58678 11.5001 6.00078 11.5001C6.18043 11.5001 6.34327 11.4346 6.47246 11.3292L6.93535 11.7628C6.82193 11.8942 6.75078 12.063 6.75078 12.2501C6.75078 12.6641 7.08678 13.0001 7.50078 13.0001C7.91478 13.0001 8.25078 12.6641 8.25078 12.2501C8.25078 12.2244 8.2455 12.1999 8.24297 12.1749L9.84551 11.8917C9.78678 11.9986 9.75078 12.1195 9.75078 12.2501C9.75078 12.6641 10.0868 13.0001 10.5008 13.0001C10.9148 13.0001 11.2508 12.6641 11.2508 12.2501C11.2508 12.0259 11.15 11.827 10.9939 11.6895L11.7469 11.5567L15.9705 15.7803C16.1112 15.9209 16.3019 15.9999 16.5008 15.9999C16.6997 15.9999 16.8904 15.9209 17.0311 15.7803L19.5008 13.3106V14.5001C19.0868 14.5001 18.7508 14.8361 18.7508 15.2501C18.7508 15.6641 19.0868 16.0001 19.5008 16.0001V17.5001C19.0868 17.5001 18.7508 17.8361 18.7508 18.2501C18.7508 18.6641 19.0868 19.0001 19.5008 19.0001V19.5001H18.7049C18.6015 19.2094 18.3267 19.0001 18.0008 19.0001C17.6748 19.0001 17.4 19.2094 17.2967 19.5001H15.7049C15.6015 19.2094 15.3267 19.0001 15.0008 19.0001C14.6748 19.0001 14.4 19.2094 14.2967 19.5001H12.7049C12.6015 19.2094 12.3267 19.0001 12.0008 19.0001C11.6748 19.0001 11.4 19.2094 11.2967 19.5001H9.70489C9.60154 19.2094 9.32672 19.0001 9.00078 19.0001C8.67485 19.0001 8.40003 19.2094 8.29668 19.5001H6.70489C6.60154 19.2094 6.32672 19.0001 6.00078 19.0001C5.67485 19.0001 5.40003 19.2094 5.29668 19.5001H4.50078V19.0001C4.91478 19.0001 5.25078 18.6641 5.25078 18.2501C5.25078 17.8361 4.91478 17.5001 4.50078 17.5001V16.0001C4.91478 16.0001 5.25078 15.6641 5.25078 15.2501C5.25078 14.8361 4.91478 14.5001 4.50078 14.5001V13.0001C4.91478 13.0001 5.25078 12.6641 5.25078 12.2501C5.25078 11.8361 4.91478 11.5001 4.50078 11.5001V9.48053ZM6.00078 13.0001C5.58678 13.0001 5.25078 13.3361 5.25078 13.7501C5.25078 14.1641 5.58678 14.5001 6.00078 14.5001C6.41478 14.5001 6.75078 14.1641 6.75078 13.7501C6.75078 13.3361 6.41478 13.0001 6.00078 13.0001ZM9.00078 13.0001C8.58678 13.0001 8.25078 13.3361 8.25078 13.7501C8.25078 14.1641 8.58678 14.5001 9.00078 14.5001C9.41478 14.5001 9.75078 14.1641 9.75078 13.7501C9.75078 13.3361 9.41478 13.0001 9.00078 13.0001ZM12.0008 13.0001C11.5868 13.0001 11.2508 13.3361 11.2508 13.7501C11.2508 14.1641 11.5868 14.5001 12.0008 14.5001C12.4148 14.5001 12.7508 14.1641 12.7508 13.7501C12.7508 13.3361 12.4148 13.0001 12.0008 13.0001ZM7.50078 14.5001C7.08678 14.5001 6.75078 14.8361 6.75078 15.2501C6.75078 15.6641 7.08678 16.0001 7.50078 16.0001C7.91478 16.0001 8.25078 15.6641 8.25078 15.2501C8.25078 14.8361 7.91478 14.5001 7.50078 14.5001ZM10.5008 14.5001C10.0868 14.5001 9.75078 14.8361 9.75078 15.2501C9.75078 15.6641 10.0868 16.0001 10.5008 16.0001C10.9148 16.0001 11.2508 15.6641 11.2508 15.2501C11.2508 14.8361 10.9148 14.5001 10.5008 14.5001ZM13.5008 14.5001C13.0868 14.5001 12.7508 14.8361 12.7508 15.2501C12.7508 15.6641 13.0868 16.0001 13.5008 16.0001C13.9148 16.0001 14.2508 15.6641 14.2508 15.2501C14.2508 14.8361 13.9148 14.5001 13.5008 14.5001ZM6.00078 16.0001C5.58678 16.0001 5.25078 16.3361 5.25078 16.7501C5.25078 17.1641 5.58678 17.5001 6.00078 17.5001C6.41478 17.5001 6.75078 17.1641 6.75078 16.7501C6.75078 16.3361 6.41478 16.0001 6.00078 16.0001ZM9.00078 16.0001C8.58678 16.0001 8.25078 16.3361 8.25078 16.7501C8.25078 17.1641 8.58678 17.5001 9.00078 17.5001C9.41478 17.5001 9.75078 17.1641 9.75078 16.7501C9.75078 16.3361 9.41478 16.0001 9.00078 16.0001ZM12.0008 16.0001C11.5868 16.0001 11.2508 16.3361 11.2508 16.7501C11.2508 17.1641 11.5868 17.5001 12.0008 17.5001C12.4148 17.5001 12.7508 17.1641 12.7508 16.7501C12.7508 16.3361 12.4148 16.0001 12.0008 16.0001ZM15.0008 16.0001C14.5868 16.0001 14.2508 16.3361 14.2508 16.7501C14.2508 17.1641 14.5868 17.5001 15.0008 17.5001C15.4148 17.5001 15.7508 17.1641 15.7508 16.7501C15.7508 16.3361 15.4148 16.0001 15.0008 16.0001ZM18.0008 16.0001C17.5868 16.0001 17.2508 16.3361 17.2508 16.7501C17.2508 17.1641 17.5868 17.5001 18.0008 17.5001C18.4148 17.5001 18.7508 17.1641 18.7508 16.7501C18.7508 16.3361 18.4148 16.0001 18.0008 16.0001ZM7.50078 17.5001C7.08678 17.5001 6.75078 17.8361 6.75078 18.2501C6.75078 18.6641 7.08678 19.0001 7.50078 19.0001C7.91478 19.0001 8.25078 18.6641 8.25078 18.2501C8.25078 17.8361 7.91478 17.5001 7.50078 17.5001ZM10.5008 17.5001C10.0868 17.5001 9.75078 17.8361 9.75078 18.2501C9.75078 18.6641 10.0868 19.0001 10.5008 19.0001C10.9148 19.0001 11.2508 18.6641 11.2508 18.2501C11.2508 17.8361 10.9148 17.5001 10.5008 17.5001ZM13.5008 17.5001C13.0868 17.5001 12.7508 17.8361 12.7508 18.2501C12.7508 18.6641 13.0868 19.0001 13.5008 19.0001C13.9148 19.0001 14.2508 18.6641 14.2508 18.2501C14.2508 17.8361 13.9148 17.5001 13.5008 17.5001ZM16.5008 17.5001C16.0868 17.5001 15.7508 17.8361 15.7508 18.2501C15.7508 18.6641 16.0868 19.0001 16.5008 19.0001C16.9148 19.0001 17.2508 18.6641 17.2508 18.2501C17.2508 17.8361 16.9148 17.5001 16.5008 17.5001Z" fill="#0167FF"/>
</svg>
