<svg width="18" height="18" viewBox="0 0 18 18" fill="none" xmlns="http://www.w3.org/2000/svg">
<path d="M1 0C0.4475 0 0 0.4475 0 1V5C0 5.5525 0.4475 6 1 6H2V7.75C1.99859 7.84938 2.01696 7.94806 2.05402 8.04028C2.09108 8.13251 2.1461 8.21645 2.21588 8.28723C2.28566 8.358 2.36882 8.41421 2.46051 8.45257C2.5522 8.49093 2.65061 8.51068 2.75 8.51068C2.84939 8.51068 2.9478 8.49093 3.03949 8.45257C3.13118 8.41421 3.21434 8.358 3.28412 8.28723C3.3539 8.21645 3.40892 8.13251 3.44598 8.04028C3.48304 7.94806 3.50141 7.84938 3.5 7.75V6H5C5.5525 6 6 5.5525 6 5V3.5H7.75C7.84938 3.50141 7.94806 3.48304 8.04028 3.44598C8.13251 3.40892 8.21645 3.3539 8.28723 3.28412C8.358 3.21434 8.41421 3.13118 8.45257 3.03949C8.49093 2.9478 8.51068 2.84939 8.51068 2.75C8.51068 2.65061 8.49093 2.5522 8.45257 2.46051C8.41421 2.36882 8.358 2.28566 8.28723 2.21588C8.21645 2.1461 8.13251 2.09108 8.04028 2.05402C7.94806 2.01696 7.84938 1.99859 7.75 2H6V1C6 0.4475 5.5525 0 5 0H1ZM13 0C12.4475 0 12 0.4475 12 1V2H10.25C10.1506 1.99859 10.0519 2.01696 9.95972 2.05402C9.86749 2.09108 9.78355 2.1461 9.71277 2.21588C9.642 2.28566 9.58579 2.36882 9.54743 2.46051C9.50907 2.5522 9.48932 2.65061 9.48932 2.75C9.48932 2.84939 9.50907 2.9478 9.54743 3.03949C9.58579 3.13118 9.642 3.21434 9.71277 3.28412C9.78355 3.3539 9.86749 3.40892 9.95972 3.44598C10.0519 3.48304 10.1506 3.50141 10.25 3.5H12V5C12 5.5525 12.4475 6 13 6H14.5V7.75C14.4986 7.84938 14.517 7.94806 14.554 8.04028C14.5911 8.13251 14.6461 8.21645 14.7159 8.28723C14.7857 8.358 14.8688 8.41421 14.9605 8.45257C15.0522 8.49093 15.1506 8.51068 15.25 8.51068C15.3494 8.51068 15.4478 8.49093 15.5395 8.45257C15.6312 8.41421 15.7143 8.358 15.7841 8.28723C15.8539 8.21645 15.9089 8.13251 15.946 8.04028C15.983 7.94806 16.0014 7.84938 16 7.75V6H17C17.5525 6 18 5.5525 18 5V1C18 0.4475 17.5525 0 17 0H13ZM2.73828 9.48926C2.53954 9.49236 2.35016 9.57423 2.21173 9.71686C2.0733 9.8595 1.99715 10.0513 2 10.25V12H1C0.4475 12 0 12.4475 0 13V17C0 17.5525 0.4475 18 1 18H5C5.5525 18 6 17.5525 6 17V16H7.75C7.84938 16.0014 7.94806 15.983 8.04028 15.946C8.13251 15.9089 8.21645 15.8539 8.28723 15.7841C8.358 15.7143 8.41421 15.6312 8.45257 15.5395C8.49093 15.4478 8.51068 15.3494 8.51068 15.25C8.51068 15.1506 8.49093 15.0522 8.45257 14.9605C8.41421 14.8688 8.358 14.7857 8.28723 14.7159C8.21645 14.6461 8.13251 14.5911 8.04028 14.554C7.94806 14.517 7.84938 14.4986 7.75 14.5H6V13C6 12.4475 5.5525 12 5 12H3.5V10.25C3.50144 10.1496 3.48271 10.05 3.44493 9.95695C3.40715 9.86394 3.35108 9.77946 3.28005 9.70852C3.20901 9.63758 3.12446 9.58161 3.0314 9.54395C2.93834 9.50629 2.83866 9.48769 2.73828 9.48926ZM15.2383 9.48926C15.0395 9.49236 14.8502 9.57423 14.7117 9.71686C14.5733 9.8595 14.4971 10.0513 14.5 10.25V12H13C12.4475 12 12 12.4475 12 13V14.5H10.25C10.1506 14.4986 10.0519 14.517 9.95972 14.554C9.86749 14.5911 9.78355 14.6461 9.71277 14.7159C9.642 14.7857 9.58579 14.8688 9.54743 14.9605C9.50907 15.0522 9.48932 15.1506 9.48932 15.25C9.48932 15.3494 9.50907 15.4478 9.54743 15.5395C9.58579 15.6312 9.642 15.7143 9.71277 15.7841C9.78355 15.8539 9.86749 15.9089 9.95972 15.946C10.0519 15.983 10.1506 16.0014 10.25 16H12V17C12 17.5525 12.4475 18 13 18H17C17.5525 18 18 17.5525 18 17V13C18 12.4475 17.5525 12 17 12H16V10.25C16.0014 10.1496 15.9827 10.05 15.9449 9.95695C15.9071 9.86394 15.8511 9.77946 15.78 9.70852C15.709 9.63758 15.6245 9.58161 15.5314 9.54395C15.4383 9.50629 15.3387 9.48769 15.2383 9.48926Z" fill="#606770"/>
</svg>
