<svg width="20" height="20" viewBox="0 0 20 20" fill="none" xmlns="http://www.w3.org/2000/svg">
<path d="M17.087 17.0465C18.886 15.2375 20 12.7465 20 10C20 4.486 15.514 0 10 0C4.486 0 0 4.486 0 10C0 15.514 4.486 20 10 20C12.7465 20 15.237 18.886 17.046 17.0875C17.0535 17.0805 17.0635 17.0785 17.0705 17.071C17.078 17.064 17.08 17.054 17.087 17.0465ZM12.7255 1.9565L9.089 5.593C8.468 5.721 7.8955 5.9805 7.3965 6.3365L6.8135 5.7535L11.002 1.5645C11.5985 1.635 12.174 1.769 12.7255 1.9565ZM15.452 3.4875L12.603 6.3365C12.169 6.027 11.678 5.7945 11.1485 5.6545L14.189 2.6135C14.6365 2.868 15.06 3.159 15.452 3.4875ZM5.7535 4.693L4.548 3.4875C5.7495 2.48 7.233 1.805 8.8605 1.5855L5.7535 4.693ZM10 7C11.6545 7 13 8.3455 13 10C13 11.6545 11.6545 13 10 13C8.3455 13 7 11.6545 7 10C7 8.3455 8.3455 7 10 7ZM1.5 10C1.5 7.926 2.2485 6.025 3.4875 4.548L6.3365 7.397C5.812 8.1325 5.5 9.0295 5.5 10C5.5 12.481 7.5185 14.5 10 14.5C10.9705 14.5 11.8675 14.188 12.6035 13.664L15.452 16.513C13.975 17.7515 12.074 18.5 10 18.5C5.313 18.5 1.5 14.687 1.5 10Z" fill="#606770"/>
</svg>
