<svg width="24" height="25" viewBox="0 0 24 25" fill="none" xmlns="http://www.w3.org/2000/svg">
<path d="M10.3664 23.6245L2.06974 18.8836C1.48554 18.5497 1.125 17.9285 1.125 17.2556V8.73755C1.125 8.06469 1.48554 7.44342 2.06974 7.10959L10.3664 2.36863C10.6497 2.20674 10.9704 2.12158 11.2967 2.12158H12.7033C13.0296 2.12158 13.3503 2.20674 13.6336 2.36863L21.9303 7.10959C22.5145 7.44342 22.875 8.06469 22.875 8.73755V17.2556C22.875 17.9285 22.5145 18.5497 21.9303 18.8836L13.6336 23.6245L14.1917 24.6013L13.6336 23.6245C13.3503 23.7864 13.0296 23.8716 12.7033 23.8716H11.2967C10.9704 23.8716 10.6497 23.7864 10.3664 23.6245Z" stroke="#0549CF" stroke-width="2.25"/>
<path d="M18.375 8.87158H5.625L10.125 15.6216V18.9966H13.5V15.6216L18.375 8.87158Z" stroke="#0549CF" stroke-width="2.25" stroke-linejoin="round"/>
</svg>
