<svg width="20" height="20" viewBox="0 0 20 20" fill="none" xmlns="http://www.w3.org/2000/svg">
<path d="M12.25 0.5C11.1151 0.5 10.1833 1.34765 10.0312 2.44141L7.61816 2.99805C7.2138 2.3968 6.52734 2 5.75 2C4.5095 2 3.5 3.0095 3.5 4.25C3.5 4.83516 3.73011 5.364 4.09766 5.76465L2.96973 8.02246C2.8964 8.01521 2.8252 8 2.75 8C1.5095 8 0.5 9.0095 0.5 10.25C0.5 11.4905 1.5095 12.5 2.75 12.5C3.58515 12.5 4.30712 12.0369 4.69531 11.3594L7.05176 11.7217C7.26266 12.7052 8.11865 13.4453 9.15332 13.4902L9.83008 15.5195C9.32781 15.9326 9 16.5506 9 17.25C9 18.4905 10.0095 19.5 11.25 19.5C12.4905 19.5 13.5 18.4905 13.5 17.25C13.5 17.0785 13.477 16.9126 13.4404 16.752L15.9492 15.0791C16.3173 15.3418 16.7644 15.5 17.25 15.5C18.4905 15.5 19.5 14.4905 19.5 13.25C19.5 12.292 18.8954 11.4772 18.0498 11.1533V8.84668C18.8954 8.5228 19.5 7.70802 19.5 6.75C19.5 5.5095 18.4905 4.5 17.25 4.5C16.8348 4.5 16.4504 4.62043 16.1162 4.81738L14.3828 3.43164C14.4522 3.21528 14.5 2.9891 14.5 2.75C14.5 1.5095 13.4905 0.5 12.25 0.5ZM10.3818 4.00195C10.7862 4.6032 11.4727 5 12.25 5C12.6652 5 13.0496 4.87957 13.3838 4.68262L15.1172 6.06836C15.0478 6.28472 15 6.5109 15 6.75C15 7.70802 15.6046 8.5228 16.4502 8.84668V11.1533C15.6046 11.4772 15 12.292 15 13.25C15 13.4215 15.023 13.5874 15.0596 13.748L12.5508 15.4209C12.2078 15.1761 11.7945 15.0292 11.3467 15.0098L10.6699 12.9805C11.1722 12.5674 11.5 11.9494 11.5 11.25C11.5 10.0095 10.4905 9 9.25 9C8.41437 9 7.69174 9.46341 7.30371 10.1416L4.94824 9.77832C4.86286 9.38015 4.6682 9.02515 4.40234 8.73535L5.53027 6.47754C5.6036 6.48479 5.6748 6.5 5.75 6.5C6.88457 6.5 7.81625 5.65286 7.96875 4.55957L10.3818 4.00195Z" fill="#606770"/>
</svg>
