<svg width="20" height="19" viewBox="0 0 20 19" fill="none" xmlns="http://www.w3.org/2000/svg">
<path d="M7.60039 0.399902C7.15879 0.399902 6.80039 0.758302 6.80039 1.1999V4.3999C6.80039 4.8415 7.15879 5.1999 7.60039 5.1999H9.20039V7.5999H3.60039C2.72594 7.5999 2.00039 8.32545 2.00039 9.1999V12.3999H3.60039V9.1999H9.20039V12.3999H10.8004V9.1999H16.4004V12.3999H18.0004V9.1999C18.0004 8.32545 17.2748 7.5999 16.4004 7.5999H10.8004V5.1999H12.4004C12.842 5.1999 13.2004 4.8415 13.2004 4.3999V1.1999C13.2004 0.758302 12.842 0.399902 12.4004 0.399902H7.60039ZM1.20039 13.9999C0.758791 13.9999 0.400391 14.3583 0.400391 14.7999V17.9999C0.400391 18.4415 0.758791 18.7999 1.20039 18.7999H4.40039C4.84199 18.7999 5.20039 18.4415 5.20039 17.9999V14.7999C5.20039 14.3583 4.84199 13.9999 4.40039 13.9999H1.20039ZM8.40039 13.9999C7.95879 13.9999 7.60039 14.3583 7.60039 14.7999V17.9999C7.60039 18.4415 7.95879 18.7999 8.40039 18.7999H11.6004C12.042 18.7999 12.4004 18.4415 12.4004 17.9999V14.7999C12.4004 14.3583 12.042 13.9999 11.6004 13.9999H8.40039ZM15.6004 13.9999C15.1588 13.9999 14.8004 14.3583 14.8004 14.7999V17.9999C14.8004 18.4415 15.1588 18.7999 15.6004 18.7999H18.8004C19.242 18.7999 19.6004 18.4415 19.6004 17.9999V14.7999C19.6004 14.3583 19.242 13.9999 18.8004 13.9999H15.6004Z" fill="#0167FF"/>
</svg>
