<svg width="18" height="18" viewBox="0 0 18 18" fill="none" xmlns="http://www.w3.org/2000/svg">
<path fill-rule="evenodd" clip-rule="evenodd" d="M0.666626 15.666C0.666626 16.5865 1.41282 17.3327 2.33329 17.3327H13.5118L17.3333 13.5112V2.33268C17.3333 1.41221 16.5871 0.666016 15.6666 0.666016H2.33329C1.41282 0.666016 0.666626 1.41221 0.666626 2.33268V15.666ZM2.33329 2.33268H15.6666V11.4993H13.1666C12.2462 11.4993 11.5 12.2455 11.5 13.166V15.666H2.33329V2.33268ZM13.1666 13.166H15.3214L13.1666 15.3208V13.166ZM4.83329 11.4993V13.166H9.83329V11.4993H4.83329ZM4.83329 9.83268V8.16602H13.1666V9.83268H4.83329ZM4.83329 4.83268V6.49935H13.1666V4.83268H4.83329Z" fill="#026DE1"/>
</svg>
