<svg width="24" height="24" viewBox="0 0 24 24" fill="none" xmlns="http://www.w3.org/2000/svg">
<path d="M5.78906 3C4.27918 3 3.03906 4.24011 3.03906 5.75V18.25C3.03906 19.7599 4.27918 21 5.78906 21H18.2891C19.799 21 21.0391 19.7599 21.0391 18.25V5.75C21.0391 4.24011 19.799 3 18.2891 3H14.999C14.8001 3.00002 14.6094 3.07904 14.4687 3.21969C14.3281 3.36034 14.249 3.55109 14.249 3.75C14.249 4.55338 13.9596 5.06978 13.543 5.4375C13.1263 5.80522 12.552 6 12.0391 6C11.5261 6 10.9528 5.80522 10.5361 5.4375C10.1195 5.06978 9.83008 4.55338 9.83008 3.75C9.83006 3.55109 9.75103 3.36034 9.61039 3.21969C9.46974 3.07904 9.27898 3.00002 9.08008 3H5.78906ZM5.78906 4.5H8.48633C8.65186 5.33774 8.99351 6.07673 9.54395 6.5625C10.2604 7.19478 11.1655 7.5 12.0391 7.5C12.9126 7.5 13.8187 7.19478 14.5352 6.5625C15.0856 6.07673 15.4272 5.33774 15.5928 4.5H18.2891C18.9882 4.5 19.5391 5.05089 19.5391 5.75V18.25C19.5391 18.9491 18.9882 19.5 18.2891 19.5H5.78906C5.08995 19.5 4.53906 18.9491 4.53906 18.25V5.75C4.53906 5.05089 5.08995 4.5 5.78906 4.5Z" fill="#606770"/>
<path d="M16.7885 10.6428C16.6961 10.4802 16.5639 10.3448 16.4046 10.2496C16.2453 10.1545 16.0644 10.1029 15.8797 10.0998H9.03647L8.72639 8.8728C8.69506 8.75435 8.62516 8.65016 8.52808 8.5772C8.431 8.50425 8.31246 8.46682 8.19176 8.47102H7.12251C6.98072 8.47102 6.84474 8.52822 6.74448 8.63004C6.64422 8.73186 6.58789 8.86996 6.58789 9.01396C6.58789 9.15795 6.64422 9.29605 6.74448 9.39787C6.84474 9.49969 6.98072 9.5569 7.12251 9.5569H7.78545L9.26101 15.1274C9.29234 15.2459 9.36224 15.3501 9.45931 15.423C9.55639 15.496 9.67494 15.5334 9.79563 15.5292H14.6072C14.706 15.5289 14.8027 15.5008 14.8867 15.4481C14.9707 15.3954 15.0386 15.3201 15.0831 15.2306L16.8366 11.6689C16.9126 11.5071 16.948 11.3288 16.9396 11.1497C16.9312 10.9706 16.8793 10.7965 16.7885 10.6428Z" fill="#606770"/>
<path d="M9.64729 17.8825C10.0371 17.8825 10.3532 17.5664 10.3532 17.1766C10.3532 16.7867 10.0371 16.4707 9.64729 16.4707C9.25744 16.4707 8.94141 16.7867 8.94141 17.1766C8.94141 17.5664 9.25744 17.8825 9.64729 17.8825Z" fill="#606770"/>
<path d="M14.3524 17.8825C14.7422 17.8825 15.0582 17.5664 15.0582 17.1766C15.0582 16.7867 14.7422 16.4707 14.3524 16.4707C13.9625 16.4707 13.6465 16.7867 13.6465 17.1766C13.6465 17.5664 13.9625 17.8825 14.3524 17.8825Z" fill="#606770"/>
</svg>
