<svg width="24" height="24" viewBox="0 0 24 24" fill="none" xmlns="http://www.w3.org/2000/svg">
<path d="M10.3696 1.37097L9.81149 0.394267L10.3696 1.37097C10.6529 1.20909 10.9735 1.12394 11.2998 1.12394H12.7063C13.0326 1.12394 13.3532 1.20909 13.6365 1.37097L14.1946 0.394266L13.6365 1.37097L21.9326 6.1116C22.5168 6.44541 22.8773 7.06664 22.8773 7.73944V16.2569C22.8773 16.9297 22.5168 17.5509 21.9326 17.8847L13.6365 22.6254C13.3532 22.7873 13.0326 22.8724 12.7063 22.8724H11.2998C10.9735 22.8724 10.6529 22.7873 10.3696 22.6254L2.0735 17.8847L1.52445 18.8456L2.0735 17.8847C1.48934 17.5509 1.12883 16.9297 1.12883 16.2569V7.73945C1.12883 7.06664 1.48934 6.44541 2.0735 6.1116L10.3696 1.37097Z" stroke="#0549CF" stroke-width="2.24984"/>
</svg>
