<svg width="16" height="17" viewBox="0 0 16 17" fill="none" xmlns="http://www.w3.org/2000/svg">
<path fill-rule="evenodd" clip-rule="evenodd" d="M1.66536 3.66667C2.53981 3.66667 3.2487 2.95779 3.2487 2.08333C3.2487 1.20888 2.53981 0.5 1.66536 0.5C0.790913 0.5 0.0820312 1.20888 0.0820312 2.08333C0.0820312 2.95779 0.790913 3.66667 1.66536 3.66667ZM7.13126 5.96593C7.89618 5.5006 8.76227 5.25003 9.58203 5.25003H11.1654C13.3725 5.25003 15.9154 7.06639 15.9154 10V16.3334H12.7487V10C12.7487 9.08843 11.8083 8.41669 11.1654 8.41669H9.58203C8.93912 8.41669 7.9987 9.08843 7.9987 10V16.3334H4.83203V5.25003H6.41536L7.13126 5.96593ZM0.0820312 5.25003V16.3334H3.2487V5.25003H0.0820312Z" fill="white"/>
</svg>
