<svg width="20" height="20" viewBox="0 0 20 20" fill="none" xmlns="http://www.w3.org/2000/svg">
<path fill-rule="evenodd" clip-rule="evenodd" d="M10.8333 9.16667C9.28013 9.16667 7.97505 8.10436 7.60501 6.66667H1.66797V5H7.60501C7.97505 3.56231 9.28013 2.5 10.8333 2.5C12.6743 2.5 14.1667 3.99238 14.1667 5.83333C14.1667 7.67428 12.6743 9.16667 10.8333 9.16667ZM15.8359 5H18.3359V6.66667H15.8359V5ZM6.66927 17.5C5.11607 17.5 3.81099 16.4377 3.44095 15H1.66797V13.3333H3.44095C3.81099 11.8956 5.11607 10.8333 6.66927 10.8333C8.51022 10.8333 10.0026 12.3257 10.0026 14.1667C10.0026 16.0076 8.51022 17.5 6.66927 17.5ZM11.668 15H18.3346V13.3333H11.668V15ZM8.33333 14.167C8.33333 15.0875 7.58714 15.8337 6.66667 15.8337C5.74619 15.8337 5 15.0875 5 14.167C5 13.2465 5.74619 12.5003 6.66667 12.5003C7.58714 12.5003 8.33333 13.2465 8.33333 14.167ZM12.5013 5.83333C12.5013 6.75381 11.7551 7.5 10.8346 7.5C9.91416 7.5 9.16797 6.75381 9.16797 5.83333C9.16797 4.91286 9.91416 4.16667 10.8346 4.16667C11.7551 4.16667 12.5013 4.91286 12.5013 5.83333Z" fill="#333333"/>
</svg>
