<svg width="20" height="20" viewBox="0 0 20 20" fill="none" xmlns="http://www.w3.org/2000/svg">
<path fill-rule="evenodd" clip-rule="evenodd" d="M8 16C3.58172 16 0 12.4183 0 8C0 3.58172 3.58172 0 8 0C12.4183 0 16 3.58172 16 8C16 9.84871 15.3729 11.551 14.3199 12.9056L19.7071 18.2929L18.2929 19.7071L12.9056 14.3199C11.551 15.3729 9.84871 16 8 16ZM14 8.00001C14 11.3137 11.3137 14 8.00001 14C4.6863 14 2.00001 11.3137 2.00001 8.00001C2.00001 4.6863 4.6863 2.00001 8.00001 2.00001C11.3137 2.00001 14 4.6863 14 8.00001Z" fill="#5F6368"/>
</svg>
