<svg width="24" height="24" viewBox="0 0 24 24" fill="none" xmlns="http://www.w3.org/2000/svg">
<path d="M5.78906 3C4.27918 3 3.03906 4.24011 3.03906 5.75V18.25C3.03906 19.7599 4.27918 21 5.78906 21H18.2891C19.799 21 21.0391 19.7599 21.0391 18.25V5.75C21.0391 4.24011 19.799 3 18.2891 3H14.999C14.8001 3.00002 14.6094 3.07904 14.4687 3.21969C14.3281 3.36034 14.249 3.55109 14.249 3.75C14.249 4.55338 13.9596 5.06978 13.543 5.4375C13.1263 5.80522 12.552 6 12.0391 6C11.5261 6 10.9528 5.80522 10.5361 5.4375C10.1195 5.06978 9.83008 4.55338 9.83008 3.75C9.83006 3.55109 9.75103 3.36034 9.61039 3.21969C9.46974 3.07904 9.27898 3.00002 9.08008 3H5.78906ZM5.78906 4.5H8.48633C8.65186 5.33774 8.99351 6.07673 9.54395 6.5625C10.2604 7.19478 11.1655 7.5 12.0391 7.5C12.9126 7.5 13.8187 7.19478 14.5352 6.5625C15.0856 6.07673 15.4272 5.33774 15.5928 4.5H18.2891C18.9882 4.5 19.5391 5.05089 19.5391 5.75V18.25C19.5391 18.9491 18.9882 19.5 18.2891 19.5H5.78906C5.08995 19.5 4.53906 18.9491 4.53906 18.25V5.75C4.53906 5.05089 5.08995 4.5 5.78906 4.5Z" fill="#606770"/>
<path d="M12.0001 13.2763C12.5762 13.2763 13.1286 13.0479 13.5359 12.6414C13.9432 12.2349 14.1721 11.6836 14.1721 11.1087C14.1721 10.5338 13.9432 9.98252 13.5359 9.57603C13.1286 9.16953 12.5762 8.94116 12.0001 8.94116C11.4241 8.94116 10.8716 9.16953 10.4643 9.57603C10.057 9.98252 9.82817 10.5338 9.82817 11.1087C9.82817 11.6836 10.057 12.2349 10.4643 12.6414C10.8716 13.0479 11.4241 13.2763 12.0001 13.2763ZM9.4888 14.0891C9.21879 14.0891 8.95983 14.1962 8.7689 14.3867C8.57797 14.5772 8.4707 14.8357 8.4707 15.1052V15.4438C8.4707 15.4438 8.4707 17.8823 12.0001 17.8823C15.5295 17.8823 15.5295 15.4438 15.5295 15.4438V15.1052C15.5295 14.8357 15.4223 14.5772 15.2313 14.3867C15.0404 14.1962 14.7814 14.0891 14.5114 14.0891H9.4888Z" fill="#606770"/>
</svg>
