<svg width="24" height="22" viewBox="0 0 24 22" fill="none" xmlns="http://www.w3.org/2000/svg">
<path fill-rule="evenodd" clip-rule="evenodd" d="M21.631 3.25883L23.187 3.44055L22.4876 4.84237C22.1465 5.52598 21.805 6.2096 21.4633 6.89321C21.4227 7.038 21.3515 7.16493 21.2462 7.33019C21.2021 7.39924 21.0518 7.61889 21.0447 7.62944C21.005 7.68898 20.9757 7.73594 20.9545 7.77357V10.4007C20.9545 17.1232 14.4487 21.3951 8.3047 21.3951C7.04749 21.3951 6.0923 21.3349 4.99854 21.0962C3.19857 20.7034 1.85904 19.9226 1.24607 18.558L0.614993 17.1531L2.14866 17.0121C3.53608 16.8845 4.73901 16.6202 5.66281 16.2662C3.12666 15.8583 1.70541 14.7445 1.70541 12.6526V11.5527H2.80531C3.04697 11.5527 3.26487 11.5331 3.45968 11.4971C1.55627 10.359 0.602906 8.53338 0.602906 6.00113C0.602698 5.8932 0.602698 5.8932 0.602049 5.7778C0.594899 4.50143 0.663456 3.81944 1.01286 2.94901C1.2368 2.39116 1.56048 1.87474 1.99611 1.40155L2.8261 0.5L3.63306 1.42222C6.29234 4.46138 8.92109 6.30518 11.6051 6.5282C11.6165 3.72383 13.736 1.60157 16.5548 1.60157C17.8688 1.60157 19.0608 2.10036 19.9976 2.99975C20.5103 3.1051 21.0548 3.19154 21.631 3.25883ZM19.1993 5.07764L18.8621 5.00129L18.6292 4.74576C18.0662 4.12792 17.3595 3.80123 16.5548 3.80123C14.9457 3.80123 13.8048 4.94774 13.8048 6.55095C13.8048 6.81296 13.7981 6.9776 13.7654 7.19398C13.6352 8.05741 13.1509 8.75074 12.155 8.75074C8.85746 8.75074 5.88257 6.9842 2.98164 3.96704C2.83209 4.42166 2.79692 4.88897 2.80183 5.76535C2.8025 5.88257 2.8025 5.88257 2.80272 6.00101C2.80272 8.2536 3.71532 9.48574 5.87609 10.1725L6.64281 10.4162V11.2207C6.64281 12.1963 5.71853 13.1147 4.36618 13.526C4.98611 13.9964 6.25394 14.2502 8.30512 14.2502H9.40501V15.3501C9.40501 16.9259 7.59429 18.1598 4.859 18.8041C5.75105 19.0774 6.93879 19.1952 8.30473 19.1952C13.3801 19.1952 18.7548 15.6661 18.7548 10.4006V7.65085C18.7548 7.32772 18.8484 7.04724 19.004 6.75561C19.0649 6.64159 19.1319 6.53289 19.2145 6.40891C19.2301 6.38557 19.2879 6.30099 19.3337 6.23338L19.4209 6.05905C19.5621 5.77655 19.7033 5.49405 19.8445 5.21156C19.6251 5.17001 19.4101 5.12537 19.1993 5.07764Z" fill="white"/>
</svg>
