<svg width="25" height="18" viewBox="0 0 25 18" fill="none" xmlns="http://www.w3.org/2000/svg">
<path fill-rule="evenodd" clip-rule="evenodd" d="M23.0718 15.4999C23.802 14.2483 24.1141 12.2302 24.1141 8.9474C24.1141 5.67765 23.805 3.67128 23.0669 2.38616C22.3272 1.05165 21.45 0.628068 19.709 0.526397C18.5205 0.445836 15.5665 0.400391 12.3607 0.400391C9.14794 0.400391 6.19267 0.445819 4.9952 0.527029C3.26394 0.628311 2.38649 1.05283 1.64031 2.39104C0.912979 3.67173 0.601562 5.6879 0.601562 8.95937C0.601562 12.2123 0.914487 14.2386 1.64671 15.5151C2.38318 16.836 3.24665 17.2554 4.99263 17.3781C6.24751 17.4515 9.37003 17.5004 12.3607 17.5004C15.3446 17.5004 18.4656 17.4515 19.709 17.3789C21.471 17.2555 22.3344 16.8354 23.0718 15.4999ZM19.5743 2.65969C20.6633 2.72334 20.8653 2.82122 21.2105 3.446C21.713 4.31634 21.9764 6.01963 21.9764 8.95942C21.9764 11.877 21.7116 13.5896 21.2128 14.4449C20.8664 15.0716 20.6659 15.1692 19.5718 15.2459C18.395 15.3145 15.3042 15.3629 12.3605 15.3629C9.41019 15.3629 6.31788 15.3145 5.12974 15.2451C4.04921 15.1691 3.84576 15.0703 3.50706 14.4628C3.00488 13.5872 2.73891 11.865 2.73891 8.94745C2.73891 6.03168 3.00347 4.3189 3.50296 3.43936C3.84693 2.82252 4.05181 2.7234 5.12981 2.66031C6.27121 2.58295 9.1987 2.53795 12.3605 2.53795C15.5155 2.53795 18.4417 2.58297 19.5743 2.65969ZM10.2188 5.74512L15.5625 8.95137L10.2188 12.1576V5.74512Z" fill="white"/>
</svg>
