<svg width="24" height="25" viewBox="0 0 24 25" fill="none" xmlns="http://www.w3.org/2000/svg">
<g clip-path="url(#clip0_1021_5703)">
<path d="M2.0735 18.8847L1.52445 19.8456L2.0735 18.8847C1.48934 18.5509 1.12883 17.9297 1.12883 17.2569V8.73945C1.12883 8.06664 1.48934 7.44541 2.0735 7.1116L10.3696 2.37097L9.81149 1.39427L10.3696 2.37097C10.6529 2.20909 10.9735 2.12394 11.2998 2.12394H12.7063C13.0326 2.12394 13.3532 2.20909 13.6365 2.37097L14.1946 1.39427L13.6365 2.37097L21.9326 7.1116C22.5168 7.44541 22.8773 8.06664 22.8773 8.73944V17.2569C22.8773 17.9297 22.5168 18.5509 21.9326 18.8847L13.6365 23.6254C13.3532 23.7873 13.0326 23.8724 12.7063 23.8724H11.2998C10.9735 23.8724 10.6529 23.7873 10.3696 23.6254L2.0735 18.8847Z" stroke="#0549CF" stroke-width="2.24984"/>
<circle cx="11.9999" cy="8.49843" r="2.62481" stroke="#0549CF" stroke-width="2.24984"/>
<path d="M9.74944 9.99805L1.875 14.4977" stroke="#0549CF" stroke-width="2.24984" stroke-linecap="square" stroke-linejoin="round"/>
<path d="M8.8278 14.4096L8.24938 18.2074M8.24938 18.2074L11.8276 19.6053M8.24938 18.2074L23.164 9.59643" stroke="#0549CF" stroke-width="2.24984" stroke-linecap="round" stroke-linejoin="round"/>
</g>
<defs>
<clipPath id="clip0_1021_5703">
<rect width="23.9983" height="23.9983" fill="white" transform="translate(0 0.998535)"/>
</clipPath>
</defs>
</svg>
