<svg width="24" height="25" viewBox="0 0 24 25" fill="none" xmlns="http://www.w3.org/2000/svg">
  <g clip-path="url(#clip0_1021_5822)">
    <path
      d="M10.3789 22.6291L2.08161 17.8878C1.49736 17.5539 1.1368 16.9326 1.1368 16.2597V7.74103C1.1368 7.06812 1.49736 6.44681 2.08161 6.11296L10.3789 1.37165C10.6622 1.20975 10.9829 1.12459 11.3092 1.12459H12.7159C13.0422 1.12459 13.3629 1.20975 13.6462 1.37165L14.1968 0.408192L13.6463 1.37165L21.9435 6.11296C22.5278 6.44681 22.8883 7.06812 22.8883 7.74103V16.2597C22.8883 16.9326 22.5278 17.5539 21.9435 17.8878L13.6463 22.6291L14.2044 23.6059L13.6462 22.6291C13.3629 22.791 13.0422 22.8761 12.7159 22.8761H11.3092C10.9829 22.8761 10.6622 22.791 10.3789 22.6291Z"
      stroke="#0549CF" stroke-width="2.25016" />
    <path
      d="M12.0004 22.1267V16.1263M12.0004 8.62573V16.1263M12.0004 16.1263L17.6258 12.751V8.62573M12.0004 16.1263L6.375 12.751V8.62573"
      stroke="#0549CF" stroke-width="2.25016" stroke-linecap="round" stroke-linejoin="round" />
  </g>
  <defs>
    <clipPath id="clip0_1021_5822">
      <rect width="24.0017" height="24.0017" fill="white" />
    </clipPath>
  </defs>
</svg>