<svg width="24" height="25" viewBox="0 0 24 25" fill="none" xmlns="http://www.w3.org/2000/svg">
  <g clip-path="url(#clip0_1021_5941)">
    <path
      d="M10.3664 22.6297L2.06974 17.8887C1.48554 17.5549 1.125 16.9336 1.125 16.2607V7.74268C1.125 7.06982 1.48554 6.44855 2.06974 6.11472L10.3664 1.37375C10.6497 1.21186 10.9704 1.12671 11.2967 1.12671H12.7033C13.0296 1.12671 13.3503 1.21186 13.6336 1.37375L21.9303 6.11472C22.5145 6.44855 22.875 7.06982 22.875 7.74268V16.2607C22.875 16.9336 22.5145 17.5549 21.9303 17.8887L13.6336 22.6297L14.1917 23.6064L13.6336 22.6297C13.3503 22.7916 13.0296 22.8767 12.7033 22.8767H11.2967C10.9704 22.8767 10.6497 22.7916 10.3664 22.6297Z"
      stroke="#606770" stroke-width="2.25" />
    <path
      d="M11.2588 1.05541L10.3578 0.381693L9.01039 2.18361L9.91134 2.85733L11.2588 1.05541ZM12.8567 22.9835L13.7803 23.6258L15.0651 21.7787L14.1415 21.1363L12.8567 22.9835ZM9.92226 5.40629C6.99943 7.09379 7.97311 6.53163 5.05087 8.21878L6.17587 10.1673C9.09811 8.48019 8.12443 9.04234 11.0473 7.35484L9.92226 5.40629ZM5.05087 8.21878C4.01788 8.81518 3.4488 9.73588 3.29695 10.734C3.15061 11.6959 3.39747 12.6661 3.85391 13.4566C4.31035 14.247 5.02724 14.9458 5.93336 15.3C6.87361 15.6675 7.95546 15.6351 8.98837 15.0387L7.86337 13.0902C7.43545 13.3372 7.07003 13.3285 6.75243 13.2044C6.40071 13.0669 6.04916 12.7588 5.8024 12.3314C5.55565 11.9041 5.46456 11.4457 5.52135 11.0724C5.57262 10.7354 5.74775 10.4145 6.17587 10.1673L5.05087 8.21878ZM8.98837 15.0387C11.91 13.3519 13.2096 12.6016 16.1331 10.9137L15.0081 8.96518C12.0846 10.6531 10.785 11.4033 7.86337 13.0902L8.98837 15.0387ZM16.1331 10.9137C16.587 10.6516 16.9579 10.6582 17.2517 10.7616C17.5748 10.8754 17.8878 11.1393 18.1014 11.5094C18.3151 11.8794 18.3872 12.2824 18.3241 12.6191C18.2668 12.9253 18.087 13.2497 17.6331 13.5118L18.7581 15.4604C19.7659 14.8785 20.3543 14.0017 20.5357 13.0333C20.7113 12.0956 20.4926 11.151 20.05 10.3844C19.6074 9.61774 18.8987 8.95603 17.9987 8.63926C17.0694 8.31214 16.0159 8.38333 15.0081 8.96518L16.1331 10.9137ZM17.6331 13.5118C14.7096 15.1997 15.6839 14.6372 12.7617 16.3243L13.8867 18.2729C16.8089 16.5857 15.8346 17.1483 18.7581 15.4604L17.6331 13.5118ZM9.91134 2.85733C10.3257 3.16718 10.6069 3.69223 10.633 4.19412C10.6559 4.63518 10.4901 5.07847 9.92226 5.40629L11.0473 7.35484C12.3836 6.58331 12.9446 5.32053 12.88 4.07734C12.8185 2.89498 12.1978 1.75762 11.2588 1.05541L9.91134 2.85733ZM12.7617 16.3243C11.3408 17.1447 10.8473 18.5352 10.9895 19.833C11.125 21.0703 11.8315 22.2704 12.8567 22.9835L14.1415 21.1363C13.6552 20.7981 13.2915 20.1848 13.2261 19.588C13.1673 19.0517 13.3422 18.5872 13.8867 18.2729L12.7617 16.3243Z"
      fill="#606770" />
  </g>
  <defs>
    <clipPath id="clip0_1021_5941">
      <rect width="24" height="24" fill="white" transform="translate(0 0.00170898)" />
    </clipPath>
  </defs>
</svg>