<svg width="24" height="25" viewBox="0 0 24 25" fill="none" xmlns="http://www.w3.org/2000/svg">

  <g clip-path="url(#clip0_1021_5895)">
    <path
      d="M10.3789 22.6296L2.08161 17.8883C1.49736 17.5544 1.1368 16.9331 1.1368 16.2602V7.74152C1.1368 7.06861 1.49736 6.4473 2.08161 6.11344L10.3789 1.37214C10.6622 1.21024 10.9829 1.12508 11.3092 1.12508H12.7159C13.0422 1.12508 13.3629 1.21024 13.6462 1.37214L14.1968 0.40868L13.6463 1.37214L21.9435 6.11344C22.5278 6.4473 22.8883 7.06861 22.8883 7.74152V16.2602C22.8883 16.9331 22.5278 17.5544 21.9435 17.8883L13.6463 22.6296L14.2044 23.6064L13.6462 22.6296C13.3629 22.7915 13.0422 22.8766 12.7159 22.8766H11.3092C10.9829 22.8766 10.6622 22.7915 10.3789 22.6296Z"
      stroke="#606770" stroke-width="2.25016" />
    <path d="M1.875 6.75049L9.37553 10.5008M21.7514 6.75049L14.6259 10.5008M12.0007 21.7516V17.6263V15.3761"
      stroke="#606770" stroke-width="2.25016" />
    <circle cx="12.0081" cy="12.0008" r="3.37524" stroke="#606770" stroke-width="2.25016" />
  </g>
  <defs>
    <clipPath id="clip0_1021_5895">
      <rect width="24.0017" height="24.0017" fill="white" />
    </clipPath>
  </defs>
</svg>