<svg width="24" height="24" viewBox="0 0 24 24" fill="none" xmlns="http://www.w3.org/2000/svg">
  <g clip-path="url(#clip0_1021_5848)">
    <path
      d="M10.3621 22.6279L2.0658 17.8872C1.48161 17.5534 1.12108 16.9321 1.12108 16.2593V7.74166C1.12108 7.06882 1.48161 6.44756 2.0658 6.11373L10.3621 1.373C10.6454 1.21111 10.966 1.12596 11.2923 1.12596H12.6988C13.0251 1.12596 13.3458 1.21111 13.6291 1.373L21.9254 6.11373C22.5096 6.44756 22.8701 7.06882 22.8701 7.74166V16.2593C22.8701 16.9321 22.5096 17.5534 21.9254 17.8872L13.6291 22.6279C13.3458 22.7898 13.0251 22.875 12.6988 22.875H11.2923C10.966 22.875 10.6454 22.7898 10.3621 22.6279Z"
      stroke="#0549CF" stroke-width="2.24997" />
    <circle cx="17.2499" cy="9.75091" r="2.62492" stroke="#0549CF" stroke-width="2.24997" />
    <circle cx="8.62489" cy="13.8756" r="3.74987" stroke="#0549CF" stroke-width="2.24997" />
  </g>
  <defs>
    <clipPath id="clip0_1021_5848">
      <rect width="23.999" height="23.999" fill="white" transform="translate(0 0.000976562)" />
    </clipPath>
  </defs>
</svg>