<svg width="24" height="25" viewBox="0 0 24 25" fill="none" xmlns="http://www.w3.org/2000/svg">
  <g clip-path="url(#clip0_1021_5909)">
    <path
      d="M10.3621 22.6304L2.0658 17.8896C1.48161 17.5558 1.12108 16.9346 1.12108 16.2617V7.7441C1.12108 7.07126 1.48161 6.45 2.0658 6.11617L10.3621 1.37544C10.6454 1.21355 10.966 1.1284 11.2923 1.1284H12.6988C13.0251 1.1284 13.3458 1.21355 13.6291 1.37544L21.9254 6.11617C22.5096 6.45 22.8701 7.07126 22.8701 7.7441V16.2617C22.8701 16.9346 22.5096 17.5558 21.9254 17.8896L13.6291 22.6304C13.3458 22.7923 13.0251 22.8774 12.6988 22.8774H11.2923C10.966 22.8774 10.6454 22.7923 10.3621 22.6304Z"
      stroke="#0549CF" stroke-width="2.24997" />
    <path
      d="M0.948464 13.2723C0.406945 13.5769 0.214887 14.2628 0.519492 14.8043C0.824097 15.3458 1.51002 15.5379 2.05154 15.2333L0.948464 13.2723ZM7.49974 10.8779L8.05128 9.89742C7.70882 9.70479 7.29067 9.70479 6.94821 9.89742L7.49974 10.8779ZM13.4995 14.2528L12.948 15.2333C13.3002 15.4314 13.7317 15.4254 14.0783 15.2175L13.4995 14.2528ZM19.703 11.8426C20.2358 11.5229 20.4086 10.8319 20.0889 10.2991C19.7692 9.76636 19.0782 9.5936 18.5454 9.91326L19.703 11.8426ZM2.05154 15.2333L8.05128 11.8584L6.94821 9.89742L0.948464 13.2723L2.05154 15.2333ZM6.94821 11.8584L12.948 15.2333L14.051 13.2723L8.05128 9.89742L6.94821 11.8584ZM14.0783 15.2175L19.703 11.8426L18.5454 9.91326L12.9207 13.2881L14.0783 15.2175Z"
      fill="#0549CF" />
  </g>
  <defs>
    <clipPath id="clip0_1021_5909">
      <rect width="23.999" height="23.999" fill="white" transform="translate(0 0.00268555)" />
    </clipPath>
  </defs>
</svg>