<svg width="24" height="25" viewBox="0 0 24 25" fill="none" xmlns="http://www.w3.org/2000/svg">
  <g clip-path="url(#clip0_1021_5870)">
    <path
      d="M10.3789 22.6303L2.08161 17.889C1.49736 17.5551 1.1368 16.9338 1.1368 16.2609V7.74225C1.1368 7.06934 1.49736 6.44803 2.08161 6.11418L10.3789 1.37287C10.6622 1.21097 10.9829 1.12581 11.3092 1.12581H12.7159C13.0422 1.12581 13.3629 1.21097 13.6462 1.37287L14.1968 0.409412L13.6463 1.37287L21.9435 6.11418C22.5278 6.44803 22.8883 7.06934 22.8883 7.74225V16.2609C22.8883 16.9338 22.5278 17.5551 21.9435 17.889L13.6463 22.6303L14.2044 23.6071L13.6462 22.6303C13.3629 22.7922 13.0422 22.8774 12.7159 22.8774H11.3092C10.9829 22.8774 10.6622 22.7922 10.3789 22.6303Z"
      stroke="#0549CF" stroke-width="2.25016" />
    <path
      d="M1.87637 9.65984C1.41196 9.24703 0.700823 9.28886 0.288011 9.75327C-0.124801 10.2177 -0.0829698 10.9288 0.381444 11.3416L1.87637 9.65984ZM23.676 11.2963C24.1154 10.8569 24.1154 10.1446 23.676 9.70518C23.2366 9.26581 22.5243 9.26581 22.0849 9.70518L23.676 11.2963ZM5.98619 12.3153L5.28336 11.4368L5.98619 12.3153ZM21.2398 12.1414L20.4443 11.3458L21.2398 12.1414ZM9.66007 11.6253L8.95724 12.5038L9.66007 11.6253ZM10.599 12.3764L9.89618 13.255L10.599 12.3764ZM8.95724 12.5038L9.89618 13.255L11.3018 11.4979L10.3629 10.7467L8.95724 12.5038ZM14.1132 13.255L15.1171 12.4518L13.7115 10.6947L12.7075 11.4979L14.1132 13.255ZM16.4817 12.4204L17.6635 13.2799L18.987 11.4601L17.8052 10.6007L16.4817 12.4204ZM22.0354 12.9369L23.676 11.2963L22.0849 9.70518L20.4443 11.3458L22.0354 12.9369ZM0.381444 11.3416L2.33814 13.0809L3.83306 11.3991L1.87637 9.65984L0.381444 11.3416ZM6.68902 13.1938L7.55158 12.5038L6.14592 10.7467L5.28336 11.4368L6.68902 13.1938ZM2.33814 13.0809C3.56726 14.1735 5.40488 14.2212 6.68902 13.1938L5.28336 11.4368C4.85531 11.7792 4.24277 11.7633 3.83306 11.3991L2.33814 13.0809ZM17.6635 13.2799C19.0067 14.2568 20.861 14.1113 22.0354 12.9369L20.4443 11.3458C20.0528 11.7373 19.4347 11.7858 18.987 11.4601L17.6635 13.2799ZM15.1171 12.4518C15.513 12.1351 16.0717 12.1223 16.4817 12.4204L17.8052 10.6007C16.5752 9.70616 14.899 9.74467 13.7115 10.6947L15.1171 12.4518ZM10.3629 10.7467C9.13021 9.76056 7.37862 9.76056 6.14592 10.7467L7.55158 12.5038C7.96248 12.1751 8.54634 12.1751 8.95724 12.5038L10.3629 10.7467ZM9.89618 13.255C11.1289 14.2411 12.8805 14.2411 14.1132 13.255L12.7075 11.4979C12.2966 11.8266 11.7127 11.8266 11.3018 11.4979L9.89618 13.255Z"
      fill="#0549CF" />
  </g>
  <defs>
    <clipPath id="clip0_1021_5870">
      <rect width="24.0017" height="24.0017" fill="white" />
    </clipPath>
  </defs>
</svg>