<svg width="24" height="25" viewBox="0 0 24 25" fill="none" xmlns="http://www.w3.org/2000/svg">
  <g clip-path="url(#clip0_1021_5797)">
    <path
      d="M13.633 1.37467L14.1835 0.411319L13.633 1.37467L21.9293 6.11544C22.5135 6.44925 22.874 7.07049 22.874 7.74332V16.261C22.874 16.9338 22.5135 17.5551 21.9293 17.8889L13.633 22.6297C13.3497 22.7916 13.0291 22.8767 12.7028 22.8767H11.2962C10.9699 22.8767 10.6493 22.7916 10.366 22.6297L9.80786 23.6064L10.366 22.6297L2.06965 17.8889C1.48547 17.5551 1.12495 16.9339 1.12495 16.261V7.74332C1.12495 7.0705 1.48547 6.44925 2.06965 6.11544L1.51152 5.1387L2.06965 6.11544L10.366 1.37467C10.6493 1.21279 10.9699 1.12764 11.2962 1.12764H12.7028C13.0291 1.12764 13.3497 1.21279 13.633 1.37467Z"
      stroke="#606770" stroke-width="2.2499" />
    <path
      d="M7.87003 17.2521L8.97968 17.437L7.87003 17.2521ZM16.1203 17.2521L15.0107 17.437L16.1203 17.2521ZM8.97968 17.437C9.24576 15.8405 10.5493 15.0022 11.9952 15.0021C13.4411 15.0021 14.7446 15.8405 15.0107 17.437L17.23 17.0671C16.7461 14.1638 14.2995 12.7522 11.9952 12.7522C9.69089 12.7522 7.24428 14.1638 6.76039 17.0671L8.97968 17.437ZM7.86968 21.0019C8.99235 20.9303 8.99236 20.9303 8.99236 20.9304C8.99236 20.9304 8.99236 20.9304 8.99236 20.9304C8.99236 20.9304 8.99235 20.9303 8.99235 20.9302C8.99233 20.93 8.99231 20.9296 8.99228 20.9291C8.99221 20.9281 8.99211 20.9264 8.99196 20.9241C8.99168 20.9195 8.99124 20.9123 8.99066 20.9029C8.9895 20.8839 8.9878 20.8555 8.98568 20.8187C8.98144 20.745 8.97552 20.638 8.96893 20.506C8.95574 20.2416 8.93995 19.8794 8.92946 19.4866C8.90736 18.6588 8.91395 17.8314 8.97968 17.437L6.76039 17.0671C6.65293 17.7119 6.65934 18.7594 6.68036 19.5467C6.69144 19.9615 6.70803 20.3419 6.72183 20.6182C6.72874 20.7566 6.73497 20.8694 6.7395 20.9481C6.74177 20.9874 6.74362 21.0183 6.74491 21.0395C6.74556 21.0502 6.74606 21.0584 6.74642 21.0641C6.7466 21.0669 6.74674 21.0692 6.74684 21.0707C6.74689 21.0715 6.74692 21.0721 6.74695 21.0726C6.74697 21.0728 6.74698 21.073 6.74699 21.0732C6.74699 21.0732 6.747 21.0733 6.747 21.0733C6.74701 21.0734 6.74701 21.0735 7.86968 21.0019ZM15.0107 17.437C15.0764 17.8313 15.0829 18.6586 15.0607 19.4865C15.0502 19.8792 15.0344 20.2415 15.0211 20.5059C15.0145 20.6379 15.0086 20.7449 15.0044 20.8185C15.0022 20.8553 15.0005 20.8838 14.9994 20.9027C14.9988 20.9122 14.9984 20.9193 14.9981 20.9239C14.9979 20.9263 14.9978 20.9279 14.9977 20.929C14.9977 20.9295 14.9977 20.9299 14.9977 20.9301C14.9977 20.9302 14.9977 20.9302 14.9977 20.9302C14.9977 20.9302 14.9977 20.9302 14.9977 20.9302C14.9977 20.9302 14.9977 20.9302 16.1203 21.0019C17.243 21.0736 17.243 21.0736 17.243 21.0735C17.243 21.0735 17.243 21.0734 17.243 21.0733C17.243 21.0732 17.243 21.073 17.2431 21.0727C17.2431 21.0723 17.2431 21.0717 17.2432 21.0709C17.2433 21.0693 17.2434 21.0671 17.2436 21.0642C17.2439 21.0585 17.2445 21.0503 17.2451 21.0397C17.2464 21.0184 17.2482 20.9876 17.2505 20.9482C17.2551 20.8696 17.2613 20.7567 17.2682 20.6183C17.2821 20.342 17.2987 19.9616 17.3098 19.5468C17.3309 18.7595 17.3374 17.7119 17.23 17.0671L15.0107 17.437Z"
      fill="#606770" />
    <path
      d="M2.38798 7.5613C2.00655 7.07088 1.29977 6.98253 0.809346 7.36397C0.318927 7.74541 0.230579 8.45219 0.612017 8.94261L2.38798 7.5613ZM23.3871 8.94261C23.7685 8.45219 23.6802 7.74541 23.1898 7.36397C22.6993 6.98253 21.9926 7.07088 21.6111 7.5613L23.3871 8.94261ZM11.9996 8.25195L12.8875 7.5613C12.6744 7.28728 12.3467 7.127 11.9996 7.127C11.6524 7.127 11.3247 7.28728 11.1116 7.5613L11.9996 8.25195ZM17.2493 8.25195L18.1373 7.5613C17.9242 7.28728 17.5965 7.127 17.2493 7.127C16.9022 7.127 16.5745 7.28728 16.3613 7.5613L17.2493 8.25195ZM6.74978 8.25195L7.63776 7.5613C7.42463 7.28728 7.09692 7.127 6.74978 7.127C6.40263 7.127 6.07492 7.28728 5.86179 7.5613L6.74978 8.25195ZM18.0982 9.34342L17.2103 10.0341L18.0982 9.34342ZM21.6502 9.34342L20.7622 8.65277L21.6502 9.34342ZM12.8485 9.34342L11.9605 10.0341L12.8485 9.34342ZM16.4004 9.34342L15.5124 8.65277L16.4004 9.34342ZM11.1506 9.34342L10.2626 8.65277L11.1506 9.34342ZM0.612017 8.94261L1.46094 10.0341L3.2369 8.65277L2.38798 7.5613L0.612017 8.94261ZM6.78884 10.0341L7.63776 8.94261L5.86179 7.5613L5.01287 8.65277L6.78884 10.0341ZM5.86179 8.94261L6.71071 10.0341L8.48668 8.65277L7.63776 7.5613L5.86179 8.94261ZM12.0386 10.0341L12.8875 8.94261L11.1116 7.5613L10.2626 8.65277L12.0386 10.0341ZM11.1116 8.94261L11.9605 10.0341L13.7365 8.65277L12.8875 7.5613L11.1116 8.94261ZM17.2884 10.0341L18.1373 8.94261L16.3613 7.5613L15.5124 8.65277L17.2884 10.0341ZM16.3613 8.94261L17.2103 10.0341L18.9862 8.65277L18.1373 7.5613L16.3613 8.94261ZM22.5382 10.0341L23.3871 8.94261L21.6111 7.5613L20.7622 8.65277L22.5382 10.0341ZM17.2103 10.0341C18.5614 11.7713 21.187 11.7713 22.5382 10.0341L20.7622 8.65277C20.3118 9.23183 19.4366 9.23183 18.9862 8.65277L17.2103 10.0341ZM11.9605 10.0341C13.3116 11.7713 15.9372 11.7713 17.2884 10.0341L15.5124 8.65277C15.062 9.23183 14.1868 9.23183 13.7365 8.65277L11.9605 10.0341ZM6.71071 10.0341C8.06186 11.7713 10.6875 11.7713 12.0386 10.0341L10.2626 8.65277C9.81226 9.23183 8.93706 9.23183 8.48668 8.65277L6.71071 10.0341ZM1.46094 10.0341C2.81209 11.7713 5.43769 11.7713 6.78884 10.0341L5.01287 8.65277C4.56249 9.23183 3.68729 9.23183 3.2369 8.65277L1.46094 10.0341Z"
      fill="#606770" />
  </g>
  <defs>
    <clipPath id="clip0_1021_5797">
      <rect width="23.999" height="23.999" fill="white" transform="translate(0 0.00268555)" />
    </clipPath>
  </defs>
</svg>