<svg width="24" height="25" viewBox="0 0 24 25" fill="none" xmlns="http://www.w3.org/2000/svg">
  <g clip-path="url(#clip0_1021_5991)">
    <path fill-rule="evenodd" clip-rule="evenodd"
      d="M2.6279 16.9119L10.9246 21.6529C11.0379 21.7176 11.1662 21.7517 11.2967 21.7517H12.7033C12.8338 21.7517 12.9621 21.7176 13.0754 21.6529L21.3721 16.9119C21.6058 16.7784 21.75 16.5299 21.75 16.2607V7.74268C21.75 7.47353 21.6058 7.22503 21.3721 7.09149L13.0754 2.35053C12.9621 2.28577 12.8338 2.25171 12.7033 2.25171H11.2967C11.1662 2.25171 11.0379 2.28577 10.9246 2.35053L2.6279 7.09149L1.51158 5.13795L9.80828 0.396979C10.2616 0.137955 10.7746 0.00170898 11.2967 0.00170898H12.7033C13.2254 0.00170898 13.7384 0.137955 14.1917 0.39698L22.4884 5.13795C23.4231 5.67208 24 6.66611 24 7.74268V16.2607C24 17.3373 23.4231 18.3313 22.4884 18.8655L14.1917 23.6064C13.7384 23.8655 13.2254 24.0017 12.7033 24.0017H11.2967C10.7746 24.0017 10.2616 23.8655 9.80828 23.6064L1.51158 18.8655C0.576858 18.3313 0 17.3373 0 16.2607V7.74268C0 6.66611 0.576858 5.67208 1.51158 5.13795L2.6279 7.09149C2.39421 7.22503 2.25 7.47353 2.25 7.74268V16.2607C2.25 16.5299 2.39421 16.7784 2.6279 16.9119Z"
      fill="#606770" />
    <path fill-rule="evenodd" clip-rule="evenodd"
      d="M23.6548 7.93878L13.3179 13.6815C13.1988 13.7476 13.125 13.8731 13.125 14.0093V23.2517H10.875V14.0093C10.875 13.056 11.3918 12.1776 12.2252 11.7146L22.5621 5.97192L23.6548 7.93878Z"
      fill="#606770" />
  </g>
  <defs>
    <clipPath id="clip0_1021_5991">
      <rect width="24" height="24" fill="white" transform="translate(0 0.00170898)" />
    </clipPath>
  </defs>
</svg>