<svg width="24" height="25" viewBox="0 0 24 25" fill="none" xmlns="http://www.w3.org/2000/svg">
  <g clip-path="url(#clip0_1021_5925)">
    <path
      d="M10.3621 22.6291L2.0658 17.8884C1.48161 17.5546 1.12108 16.9333 1.12108 16.2605V7.74288C1.12108 7.07004 1.48161 6.44878 2.0658 6.11495L10.3621 1.37422C10.6454 1.21233 10.966 1.12718 11.2923 1.12718H12.6988C13.0251 1.12718 13.3458 1.21233 13.6291 1.37422L21.9254 6.11495C22.5096 6.44878 22.8701 7.07004 22.8701 7.74288V16.2605C22.8701 16.9333 22.5096 17.5546 21.9254 17.8884L13.6291 22.6291C13.3458 22.791 13.0251 22.8762 12.6988 22.8762H11.2923C10.966 22.8762 10.6454 22.791 10.3621 22.6291Z"
      stroke="#606770" stroke-width="2.24997" />
    <circle cx="11.9997" cy="12.0019" r="4.87476" stroke="#606770" stroke-width="2.24997" />
    <path
      d="M21.5476 15.8028C22.0891 16.1074 22.2812 16.7934 21.9766 17.3349C21.672 17.8764 20.9861 18.0685 20.4446 17.7638L21.5476 15.8028ZM15.9448 15.2327C15.4032 14.9281 15.2112 14.2422 15.5158 13.7007C15.8204 13.1591 16.5063 12.9671 17.0478 13.2717L15.9448 15.2327ZM20.4446 17.7638L17.4447 16.0764L18.5478 14.1154L21.5476 15.8028L20.4446 17.7638ZM17.4447 16.0764L15.9448 15.2327L17.0478 13.2717L18.5478 14.1154L17.4447 16.0764Z"
      fill="#606770" />
  </g>
  <defs>
    <clipPath id="clip0_1021_5925">
      <rect width="23.999" height="23.999" fill="white" transform="translate(0 0.00268555)" />
    </clipPath>
  </defs>
</svg>