<svg width="24" height="25" viewBox="0 0 24 25" fill="none" xmlns="http://www.w3.org/2000/svg">
  <g clip-path="url(#clip0_1021_5774)">
    <path
      d="M13.633 1.37467L14.1835 0.411319L13.633 1.37467L21.9293 6.11544C22.5135 6.44925 22.874 7.07049 22.874 7.74332V16.261C22.874 16.9338 22.5135 17.5551 21.9293 17.8889L13.633 22.6297C13.3497 22.7916 13.0291 22.8767 12.7028 22.8767H11.2962C10.9699 22.8767 10.6493 22.7916 10.366 22.6297L9.80786 23.6064L10.366 22.6297L2.06965 17.8889C1.48547 17.5551 1.12495 16.9339 1.12495 16.261V7.74332C1.12495 7.0705 1.48547 6.44925 2.06965 6.11544L1.51152 5.1387L2.06965 6.11544L10.366 1.37467C10.6493 1.21279 10.9699 1.12764 11.2962 1.12764H12.7028C13.0291 1.12764 13.3497 1.21279 13.633 1.37467Z"
      stroke="#0549CF" stroke-width="2.2499" />
    <circle cx="11.9921" cy="8.25238" r="2.62489" stroke="#0549CF" stroke-width="2.2499" />
    <path
      d="M6.37762 17.2521L7.48727 17.437L6.37762 17.2521ZM17.6278 17.2521L16.5181 17.437L17.6278 17.2521ZM7.48727 17.437C7.60252 16.7455 8.0644 16.1561 8.88505 15.7085C9.71632 15.2551 10.8344 15.0021 12.0027 15.0021C13.171 15.0021 14.2891 15.2551 15.1204 15.7085C15.941 16.1561 16.4029 16.7455 16.5181 17.437L18.7374 17.0671C18.4777 15.5087 17.4396 14.4107 16.1977 13.7333C14.9664 13.0617 13.4594 12.7522 12.0027 12.7522C10.546 12.7522 9.03899 13.0618 7.80773 13.7333C6.56585 14.4107 5.52771 15.5087 5.26798 17.0671L7.48727 17.437ZM7.19139 19.5953C7.22866 19.1475 7.31638 18.4623 7.48727 17.437L5.26798 17.0671C5.09249 18.12 4.9938 18.8732 4.94924 19.4086L7.19139 19.5953ZM16.5181 17.437C16.689 18.4623 16.7768 19.1475 16.814 19.5953L19.0562 19.4086C19.0116 18.8732 18.9129 18.12 18.7374 17.0671L16.5181 17.437Z"
      fill="#0549CF" />
  </g>
  <defs>
    <clipPath id="clip0_1021_5774">
      <rect width="23.999" height="23.999" fill="white" transform="translate(0 0.00268555)" />
    </clipPath>
  </defs>
</svg>